<svg width="32" height="32" viewBox="0 0 32 32" fill="none" xmlns="http://www.w3.org/2000/svg">
<rect width="32" height="32" rx="2" fill="#EBD3C7"/>
<mask id="mask0_8842_62562" style="mask-type:alpha" maskUnits="userSpaceOnUse" x="4" y="4" width="24" height="24">
<rect x="4" y="4" width="24" height="24" fill="#D9D9D9"/>
</mask>
<g mask="url(#mask0_8842_62562)">
<path d="M11.5 20.5H17.5V19.5H11.5V20.5ZM11.5 16.5H20.5V15.5H11.5V16.5ZM11.5 12.5H20.5V11.5H11.5V12.5ZM9.625 24C9.15833 24 8.771 23.846 8.463 23.538C8.15433 23.2293 8 22.8417 8 22.375V9.625C8 9.15833 8.15433 8.771 8.463 8.463C8.771 8.15433 9.15833 8 9.625 8H22.375C22.8417 8 23.2293 8.15433 23.538 8.463C23.846 8.771 24 9.15833 24 9.625V22.375C24 22.8417 23.846 23.2293 23.538 23.538C23.2293 23.846 22.8417 24 22.375 24H9.625ZM9.625 23H22.375C22.5417 23 22.6873 22.9373 22.812 22.812C22.9373 22.6873 23 22.5417 23 22.375V9.625C23 9.45833 22.9373 9.31267 22.812 9.188C22.6873 9.06267 22.5417 9 22.375 9H9.625C9.45833 9 9.31267 9.06267 9.188 9.188C9.06267 9.31267 9 9.45833 9 9.625V22.375C9 22.5417 9.06267 22.6873 9.188 22.812C9.31267 22.9373 9.45833 23 9.625 23Z" fill="#8C1D3C"/>
</g>
</svg>
