<svg width="16" height="16" viewBox="0 0 16 16" fill="none" xmlns="http://www.w3.org/2000/svg">
<path d="M14.8062 9.63123L6.36874 1.19373C4.96249 -0.268769 2.65624 -0.268769 1.19374 1.13748C-0.268762 2.54373 -0.268762 4.90623 1.19374 6.31248L1.24999 6.36873L2.82499 7.99998L3.61249 7.21248L1.98124 5.58123C1.02499 4.62498 1.02499 2.99373 1.98124 2.03748C2.93749 1.08123 4.56874 1.02498 5.52499 1.98123C5.52499 1.98123 5.52499 1.98123 5.58124 2.03748L13.9625 10.4187C14.975 11.375 14.975 13.0062 14.0187 13.9625C13.0625 14.975 11.4312 14.975 10.475 14.0187C10.475 14.0187 10.475 14.0187 10.4187 13.9625L6.25624 9.79998C5.69374 9.23748 5.74999 8.33748 6.25624 7.83123C6.81874 7.32498 7.66249 7.32498 8.22499 7.83123L10.5312 10.1375L11.3187 9.34998L8.95624 6.98748C7.94374 6.03123 6.36874 6.08748 5.41249 7.09998C4.51249 8.05623 4.51249 9.57498 5.41249 10.5875L9.63124 14.8062C11.0375 16.2687 13.3437 16.2687 14.8062 14.8625C16.2687 13.4562 16.2687 11.0937 14.8062 9.63123C14.8062 9.68748 14.8062 9.63123 14.8062 9.63123Z" fill="#0D0D0D"/>
</svg>
