<svg width="24" height="24" viewBox="0 0 24 24" fill="none" xmlns="http://www.w3.org/2000/svg">
<path fill-rule="evenodd" clip-rule="evenodd" d="M19.2892 9.02744H4.71111C4.0108 9.02744 3.48879 9.67316 3.63552 10.3579L5.34981 18.3579C5.45849 18.8651 5.9067 19.2274 6.42539 19.2274H17.5749C18.0936 19.2274 18.5418 18.8651 18.6505 18.3579L20.3648 10.3579C20.5115 9.67316 19.9895 9.02744 19.2892 9.02744ZM4.71111 7.12744C2.80117 7.12744 1.37751 8.88849 1.7777 10.756L3.49198 18.756C3.78839 20.1392 5.01078 21.1274 6.42539 21.1274H17.5749C18.9895 21.1274 20.2119 20.1392 20.5083 18.756L22.2226 10.756C22.6228 8.88849 21.1991 7.12744 19.2892 7.12744H4.71111Z" fill="#202020"/>
<path fill-rule="evenodd" clip-rule="evenodd" d="M6.0498 4.82256C6.0498 3.19332 7.37056 1.87256 8.9998 1.87256H14.9998C16.629 1.87256 17.9498 3.19332 17.9498 4.82256V6.32256H16.0498V4.82256C16.0498 4.24266 15.5797 3.77256 14.9998 3.77256H8.9998C8.41991 3.77256 7.9498 4.24266 7.9498 4.82256V6.32256H6.0498V4.82256Z" fill="#202020"/>
</svg>
