<svg width="23" height="19" viewBox="0 0 23 19" fill="none" xmlns="http://www.w3.org/2000/svg">
<path d="M16.924 7.84482H5.94126C5.50806 7.84482 5.15674 8.19576 5.15674 8.62934V14.9052C5.15674 15.3388 5.50786 15.6897 5.94126 15.6897H16.924C17.3572 15.6897 17.7085 15.3388 17.7085 14.9052V8.62934C17.7085 8.19577 17.3574 7.84482 16.9242 7.84482H16.924ZM16.1395 14.1207H6.7257V9.41378H16.1395V14.1207Z" fill="black"/>
<path d="M21.6307 17.2586H20.8462L20.8464 6.5565C22.071 5.83819 22.5495 4.69981 22.4088 3.62437C22.2947 2.75486 21.082 0.895455 20.7131 0.347114C20.5671 0.130238 20.3231 0 20.0619 0H2.80334C2.54213 0 2.29809 0.130238 2.15217 0.346932C1.78317 0.8956 0.570744 2.75482 0.456388 3.62419C0.315756 4.69981 0.794382 5.8382 2.01886 6.55651V17.2586H1.23433C0.801125 17.2586 0.449804 17.6095 0.449804 18.0431C0.449804 18.4767 0.800929 18.8276 1.23433 18.8276H21.6308C22.064 18.8276 22.4153 18.4767 22.4153 18.0431C22.4153 17.6095 22.0642 17.2586 21.6308 17.2586L21.6307 17.2586ZM12.217 1.56899H15.4647C15.5763 2.32288 15.7204 3.35162 15.7487 3.77823C15.8112 4.71961 14.9446 5.49138 13.9821 5.49138C13.0088 5.49138 12.217 4.69939 12.217 3.72626V1.56899ZM7.40034 1.56899H10.648V3.72626C10.648 4.6992 9.85623 5.49138 8.88292 5.49138C7.92039 5.49138 7.05377 4.71965 7.11634 3.77823C7.14462 3.35159 7.28871 2.32283 7.40034 1.56899ZM2.01218 3.82824C2.05195 3.55026 2.59461 2.54795 3.22607 1.56899H5.81439C5.7106 2.27983 5.58055 3.22027 5.55045 3.67429C5.55027 3.68012 5.54881 3.65878 5.54881 3.72627C5.54881 4.69921 4.757 5.4914 3.78368 5.4914C2.84759 5.4914 1.89215 4.74007 2.01216 3.82826L2.01218 3.82824ZM19.2773 17.2587H3.58768V7.039C4.75361 7.10777 5.67804 6.61875 6.31095 5.8762C7.00063 6.67693 7.94201 7.06053 8.88282 7.06053C9.90447 7.06053 10.8203 6.59851 11.4325 5.87237C12.0446 6.59834 12.9605 7.06053 13.9821 7.06053C14.9229 7.06053 15.8644 6.67694 16.5542 5.8762C17.187 6.61875 18.1114 7.10779 19.2775 7.039L19.2773 17.2587ZM19.0812 5.49153C18.1079 5.49153 17.3161 4.69953 17.3161 3.7264C17.3161 3.65891 17.315 3.67989 17.3144 3.67441C17.2841 3.22041 17.1545 2.28014 17.0505 1.56911H19.6388C20.2706 2.54808 20.813 3.5502 20.8527 3.82837C20.9727 4.74019 20.0173 5.49151 19.0812 5.49151L19.0812 5.49153Z" fill="black"/>
</svg>
