<svg width="18" height="18" viewBox="0 0 18 18" fill="current" xmlns="http://www.w3.org/2000/svg">
<path fill-rule="evenodd" clip-rule="evenodd" d="M9.00033 0.666687C9.46056 0.666687 9.83366 1.03978 9.83366 1.50002V9.48818L12.5777 6.7441C12.9032 6.41866 13.4308 6.41866 13.7562 6.7441C14.0817 7.06954 14.0817 7.59717 13.7562 7.92261L9.58958 12.0893C9.26414 12.4147 8.73651 12.4147 8.41107 12.0893L4.2444 7.92261C3.91897 7.59717 3.91897 7.06954 4.2444 6.7441C4.56984 6.41866 5.09748 6.41866 5.42291 6.7441L8.16699 9.48818V1.50002C8.16699 1.03978 8.54009 0.666687 9.00033 0.666687ZM1.50033 10.6667C1.96056 10.6667 2.33366 11.0398 2.33366 11.5V14.8334C2.33366 15.0544 2.42146 15.2663 2.57774 15.4226C2.73402 15.5789 2.94598 15.6667 3.16699 15.6667H14.8337C15.0547 15.6667 15.2666 15.5789 15.4229 15.4226C15.5792 15.2663 15.667 15.0544 15.667 14.8334V11.5C15.667 11.0398 16.0401 10.6667 16.5003 10.6667C16.9606 10.6667 17.3337 11.0398 17.3337 11.5V14.8334C17.3337 15.4964 17.0703 16.1323 16.6014 16.6011C16.1326 17.07 15.4967 17.3334 14.8337 17.3334H3.16699C2.50395 17.3334 1.86807 17.07 1.39923 16.6011C0.930384 16.1323 0.666992 15.4964 0.666992 14.8334V11.5C0.666992 11.0398 1.04009 10.6667 1.50033 10.6667Z" fill="#474E5A"/>
</svg>
