<svg width="16" height="16" viewBox="0 0 16 16" fill="none" xmlns="http://www.w3.org/2000/svg">
<path fill-rule="evenodd" clip-rule="evenodd" d="M13.3337 1.91915C13.1354 1.91915 12.9453 1.99791 12.8051 2.1381L6.6023 8.34086L6.2499 9.75045L7.65949 9.39805L13.8623 3.19529C14.0024 3.0551 14.0812 2.86496 14.0812 2.6667C14.0812 2.46843 14.0024 2.27829 13.8623 2.1381C13.7221 1.99791 13.5319 1.91915 13.3337 1.91915ZM11.8623 1.19529C12.2525 0.80505 12.7818 0.585815 13.3337 0.585815C13.8855 0.585815 14.4148 0.80505 14.8051 1.19529C15.1953 1.58553 15.4145 2.11481 15.4145 2.6667C15.4145 3.21858 15.1953 3.74786 14.8051 4.1381L8.47173 10.4714C8.38629 10.5569 8.27924 10.6175 8.16202 10.6468L5.49535 11.3135C5.26817 11.3703 5.02784 11.3037 4.86225 11.1381C4.69667 10.9725 4.6301 10.7322 4.6869 10.505L5.35356 7.83834C5.38287 7.72112 5.44348 7.61406 5.52892 7.52863L11.8623 1.19529ZM1.25278 2.58582C1.62785 2.21074 2.13656 2.00003 2.66699 2.00003H7.33366C7.70185 2.00003 8.00033 2.29851 8.00033 2.6667C8.00033 3.03489 7.70185 3.33336 7.33366 3.33336H2.66699C2.49018 3.33336 2.32061 3.4036 2.19559 3.52862C2.07056 3.65365 2.00033 3.82322 2.00033 4.00003V13.3334C2.00033 13.5102 2.07056 13.6797 2.19559 13.8048C2.32061 13.9298 2.49018 14 2.66699 14H12.0003C12.1771 14 12.3467 13.9298 12.4717 13.8048C12.5968 13.6797 12.667 13.5102 12.667 13.3334V8.6667C12.667 8.29851 12.9655 8.00003 13.3337 8.00003C13.7018 8.00003 14.0003 8.29851 14.0003 8.6667V13.3334C14.0003 13.8638 13.7896 14.3725 13.4145 14.7476C13.0395 15.1226 12.5308 15.3334 12.0003 15.3334H2.66699C2.13656 15.3334 1.62785 15.1226 1.25278 14.7476C0.877706 14.3725 0.666992 13.8638 0.666992 13.3334V4.00003C0.666992 3.4696 0.877706 2.96089 1.25278 2.58582Z" fill="#474E5A"/>
</svg>
