<svg width="282" height="200" viewBox="0 0 282 200" fill="none" xmlns="http://www.w3.org/2000/svg">
<g opacity="0.9">
<path d="M195.76 79.8236L195.76 79.8237L185.049 117.314C185.048 117.315 185.048 117.316 185.048 117.316C183.915 121.232 181.543 124.675 178.288 127.13C175.034 129.585 171.072 130.919 166.995 130.932C166.994 130.932 166.994 130.932 166.993 130.932L109.625 130.932C107.435 130.932 105.335 131.802 103.786 133.351C102.238 134.899 101.368 136.999 101.368 139.189C101.368 141.379 102.238 143.479 103.786 145.028C105.335 146.576 107.435 147.446 109.625 147.446H190.706C192.1 147.446 193.437 148 194.423 148.986C195.409 149.971 195.962 151.309 195.962 152.703C195.962 154.097 195.409 155.434 194.423 156.42C193.437 157.406 192.1 157.959 190.706 157.959H109.625C104.82 157.959 100.199 156.117 96.7123 152.812C93.2255 149.507 91.1386 144.991 90.8814 140.194C90.6242 135.396 92.2162 130.683 95.3296 127.024C98.443 123.365 102.841 121.04 107.617 120.526L109.389 120.335L108.899 118.622L97.8618 79.991L97.8602 79.9569L97.8124 79.7898L96.7616 76.1091L96.76 76.1036C96.2618 74.3834 95.2197 72.8709 93.7899 71.7925C92.36 70.7141 90.6193 70.1279 88.8284 70.1216V70.1216H88.8232H82.5976C81.2034 70.1216 79.8663 69.5678 78.8805 68.5819C77.8947 67.5961 77.3408 66.259 77.3408 64.8649C77.3408 63.4707 77.8947 62.1336 78.8805 61.1478C79.8663 60.1619 81.2034 59.6081 82.5976 59.6081H88.8192C92.6873 59.6288 96.4549 60.8411 99.6092 63.08C102.765 65.3197 105.153 68.4777 106.448 72.1238L106.803 73.1216H107.862H190.705C190.705 73.1216 190.706 73.1216 190.706 73.1216C191.519 73.1218 192.322 73.3108 193.05 73.6737C193.778 74.0367 194.412 74.5638 194.902 75.2135C195.392 75.8632 195.725 76.6177 195.873 77.4177C196.022 78.2176 195.983 79.0412 195.76 79.8236ZM183.191 85.5472L183.737 83.6351H181.748H111.83H109.842L110.388 85.547L118.314 113.302L118.314 113.303L120.036 119.331L120.347 120.419H121.479L166.998 120.419L167.002 120.419C168.794 120.413 170.536 119.827 171.967 118.748C173.398 117.668 174.44 116.154 174.938 114.433L174.939 114.428L183.191 85.5472ZM114.962 169.172C116.382 168.223 118.052 167.716 119.76 167.716C122.05 167.716 124.246 168.626 125.866 170.245C127.485 171.865 128.395 174.061 128.395 176.351C128.395 178.059 127.888 179.729 126.94 181.149C125.991 182.569 124.642 183.676 123.064 184.329C121.486 184.983 119.75 185.154 118.075 184.821C116.4 184.487 114.861 183.665 113.654 182.457C112.446 181.25 111.624 179.711 111.291 178.036C110.957 176.361 111.128 174.625 111.782 173.047C112.435 171.469 113.542 170.12 114.962 169.172ZM169.016 169.172C170.436 168.223 172.106 167.716 173.814 167.716C176.104 167.716 178.3 168.626 179.92 170.245C181.539 171.865 182.449 174.061 182.449 176.351C182.449 178.059 181.942 179.729 180.994 181.149C180.045 182.569 178.696 183.676 177.118 184.329C175.54 184.983 173.804 185.154 172.129 184.821C170.454 184.487 168.915 183.665 167.708 182.457C166.5 181.25 165.678 179.711 165.345 178.036C165.011 176.361 165.182 174.625 165.836 173.047C166.49 171.469 167.596 170.12 169.016 169.172Z" fill="#1c6dd0" />
<path fill-rule="evenodd" clip-rule="evenodd" d="M52.679 118.564C48.6692 118.564 45.5186 115.413 45.5186 111.404C45.5186 107.394 48.6692 104.243 52.679 104.243C56.6889 104.243 59.8395 107.394 59.8395 111.404C59.8395 115.413 56.6889 118.564 52.679 118.564ZM56.6893 111.404C56.6893 109.112 54.6843 107.107 52.393 107.107C50.1016 107.107 48.0967 109.112 48.0967 111.404C48.0967 113.695 49.8152 115.7 52.393 115.7C54.9708 115.7 56.6893 113.695 56.6893 111.404Z" fill="#1c6dd0"/>
<path d="M17.7114 32.3008C17.139 32.902 17.4252 33.8037 17.9976 34.4049L32.022 46.4281C32.3083 46.7287 32.5945 46.7287 32.8807 46.7287C33.1669 46.7287 33.7393 46.4281 34.0255 46.1275C34.598 45.5264 34.3117 44.6246 33.7393 44.0234L19.7149 32.0002C19.1425 31.3991 18.2839 31.6996 17.7114 32.3008Z" fill="#1c6dd0"/>
<path d="M253.833 38.429C254.124 38.429 254.416 38.429 254.708 38.1245L264.913 29.9044C265.496 29.2955 265.788 28.3822 265.205 27.7733C264.622 27.1644 263.747 26.8599 263.164 27.4688L252.958 35.6889C252.375 36.2978 252.083 37.2112 252.667 37.8201C252.958 38.1245 253.541 38.429 253.833 38.429Z" fill="#1c6dd0"/>
<path fill-rule="evenodd" clip-rule="evenodd" d="M186.737 35.8531C186.737 31.7296 189.965 28.4896 194.073 28.4896C197.888 28.4896 201.116 31.7296 201.409 35.8531C201.409 39.9767 198.181 43.2166 194.073 43.2166C189.965 43.2166 186.737 39.9767 186.737 35.8531ZM189.673 35.5585C189.673 37.9149 191.727 39.9766 194.074 39.9766C196.422 39.9766 198.476 37.9149 198.476 35.5585C198.476 33.2022 196.422 31.1404 194.074 31.1404C191.727 31.1404 189.673 33.2022 189.673 35.5585Z" fill="#1c6dd0"/>
<path fill-rule="evenodd" clip-rule="evenodd" d="M224.803 58.8756C225.04 58.582 225.317 58.2382 225.765 58.2382L232.221 57.3546L235.155 51.4638C235.155 50.8747 236.035 50.5801 236.329 50.5801C236.622 50.5801 237.209 50.8747 237.503 51.4638L240.437 57.3546L246.893 58.2382C247.48 58.2382 247.773 58.5327 248.066 59.1218C248.36 59.7109 248.066 60.3 247.773 60.5945L243.078 65.0126L244.252 71.4925C244.252 72.0815 244.252 72.6706 243.665 72.9652C243.371 73.2597 243.078 73.2597 242.785 73.2597C242.785 73.2597 242.491 72.9652 242.198 72.9652L236.329 70.0198L230.46 72.9652C230.167 73.2597 229.58 73.2597 228.993 72.9652C228.406 72.6706 228.406 72.0815 228.406 71.4925L229.58 65.0126L224.885 60.5945C224.591 60.3 224.298 59.7109 224.591 59.1218C224.661 59.0523 224.73 58.9663 224.803 58.8756ZM236.035 55.5873L234.275 59.4163C234.275 59.5636 234.128 59.7109 233.944 59.895C233.761 60.0791 233.541 60.3 233.394 60.5945L229.286 61.1836L232.221 64.129C232.514 64.4235 232.514 64.7181 232.514 65.3071L231.927 69.4307L235.448 67.0744C235.448 66.7798 236.035 66.7798 236.035 66.7798C236.035 66.7798 236.329 67.0744 236.622 67.0744L240.437 69.1362L239.85 65.0126C239.557 64.7181 239.85 64.129 240.143 63.8344L243.078 60.889L238.97 60.3C238.383 60.0054 238.089 59.7109 237.796 59.4163L236.035 55.5873Z" fill="#1c6dd0"/>
<path fill-rule="evenodd" clip-rule="evenodd" d="M107.205 17.2296L113.686 18.0954C114.275 18.0954 114.57 18.3839 114.864 19.2497C115.159 19.8269 114.864 20.4041 114.57 20.6927L109.856 25.0215L110.74 31.0819C110.74 31.6591 110.74 32.2362 110.151 32.5248C109.856 32.8134 109.561 32.8134 109.267 32.8134C109.267 32.8134 108.972 32.5248 108.678 32.5248L102.786 29.6389L96.8938 32.5248C96.5992 32.8134 96.01 32.8134 95.4208 32.5248C94.8316 32.2362 94.8316 31.6591 94.8316 31.0819L96.01 24.7329L91.2965 20.4041C91.0019 20.1155 90.7073 19.5383 91.0019 18.9611C91.0715 18.893 91.141 18.8088 91.2144 18.7199C91.452 18.4322 91.7302 18.0954 92.1803 18.0954L98.6614 17.2296L101.607 11.4578C102.197 10.592 103.669 10.592 104.259 11.4578L107.205 17.2296ZM106.911 24.4443C106.616 24.1558 106.911 23.5786 107.205 23.29L110.151 20.4041L106.027 19.8269C105.438 19.5383 105.143 19.2497 104.849 18.9611L103.081 15.2095L101.314 18.9611C101.019 19.5383 100.724 19.8269 100.135 19.8269L96.0108 20.4041L98.9567 23.29C99.2513 23.5786 99.2513 23.8672 99.2513 24.4443L98.6621 28.4846L102.492 26.4645C102.492 26.1759 103.081 26.1759 103.081 26.1759C103.081 26.1759 103.376 26.4645 103.67 26.4645L107.5 28.4846L106.911 24.4443Z" fill="#1c6dd0"/>
<path d="M50.6224 12.869C51.5062 12.869 52.0954 12.2919 52.0954 11.4261V6.80867C52.0954 5.9429 51.5062 5.36572 50.6224 5.36572C49.7386 5.36572 49.1494 5.9429 49.1494 6.80867V11.4261C49.1494 12.2919 50.0332 12.869 50.6224 12.869Z" fill="#1c6dd0"/>
<path d="M49.1494 25.0331C49.1494 25.8989 49.7386 26.476 50.6224 26.476C51.5062 26.476 52.0954 25.8989 52.0954 25.0331V20.4157C52.0954 19.5499 51.5062 18.9727 50.6224 18.9727C49.7386 18.9727 49.1494 19.5499 49.1494 20.4157V25.0331Z" fill="#1c6dd0"/>
<path d="M59.873 14.437H55.1595C54.2757 14.437 53.6865 15.0142 53.6865 15.88C53.6865 16.7457 54.2757 17.3229 55.1595 17.3229H59.873C60.7568 17.3229 61.346 16.7457 61.346 15.88C61.346 15.0142 60.7568 14.437 59.873 14.437Z" fill="#1c6dd0"/>
<path d="M46.2656 14.437H41.5521C40.6683 14.437 40.0791 15.0142 40.0791 15.88C40.0791 16.7457 40.6683 17.3229 41.5521 17.3229H46.2656C47.1494 17.3229 47.7386 16.7457 47.7386 15.88C47.7386 15.0142 47.1494 14.437 46.2656 14.437Z" fill="#1c6dd0"/>
<path d="M163.264 15.7778C162.685 15.1996 161.818 15.1996 161.24 15.7778L158.06 18.9579C157.481 19.5361 157.481 20.4035 158.06 20.9817C158.349 21.2708 158.638 21.2708 159.216 21.2708C159.794 21.2708 160.083 21.2708 160.372 20.9817L163.553 17.8015C163.842 17.2233 163.842 16.356 163.264 15.7778Z" fill="#1c6dd0"/>
<path d="M153.666 27.3998C154.244 26.8216 154.244 25.9542 153.666 25.376C153.088 24.7978 152.22 24.7978 151.642 25.376L148.462 28.5562C147.884 29.1344 147.884 30.0017 148.462 30.5799C148.751 30.869 149.04 30.869 149.618 30.869C150.197 30.869 150.486 30.869 150.775 30.5799L153.666 27.3998Z" fill="#1c6dd0"/>
<path d="M163.264 28.5562L160.083 25.376C159.505 24.7978 158.638 24.7978 158.06 25.376C157.481 25.9542 157.481 26.8216 158.06 27.3998L161.24 30.5799C161.529 30.869 161.818 30.869 162.396 30.869C162.974 30.869 163.264 30.869 163.553 30.5799C163.842 30.0017 163.842 29.1344 163.264 28.5562Z" fill="#1c6dd0"/>
<path d="M153.666 18.9579L150.486 15.7778C149.908 15.1996 149.04 15.1996 148.462 15.7778C147.884 16.356 147.884 17.2233 148.462 17.8015L151.642 20.9817C151.931 21.2708 152.22 21.2708 152.799 21.2708C153.377 21.2708 153.666 21.2708 153.955 20.9817C154.244 20.4035 154.244 19.5361 153.666 18.9579Z" fill="#1c6dd0"/>
<path fill-rule="evenodd" clip-rule="evenodd" d="M35.8525 66.6766C36.3427 66.3583 36.7468 66.4441 37.31 66.7748C37.7141 66.8605 37.7871 67.5095 37.6151 68.3176L36.0796 74.5378L40.5589 79.2893C40.877 79.7791 41.1951 80.2689 40.864 80.8321C40.778 81.2362 40.5329 81.3954 40.2879 81.5545C40.2879 81.5545 39.8837 81.4687 39.6387 81.6279L33.1467 82.3618L29.8357 87.994C29.7496 88.3981 29.2595 88.7164 28.6103 88.7898C27.9611 88.8632 27.643 88.3734 27.3249 87.8836L24.8061 81.8589L18.4992 80.7316C18.0951 80.6459 17.5319 80.3152 17.4589 79.6662C17.4792 79.5708 17.4906 79.4618 17.5027 79.3467C17.5418 78.9742 17.5876 78.538 17.962 78.2949L22.8765 74.0587L22.1463 67.569C22.1593 66.5159 23.3847 65.7201 24.352 66.1366L29.9837 69.4433L35.8525 66.6766ZM33.715 75.7252C33.3109 75.6395 33.2379 74.9905 33.3239 74.5864L34.1841 70.5458L30.435 72.2841C29.7858 72.3575 29.3817 72.2717 28.9776 72.186L28.9776 72.186L25.4395 69.957L26.0367 74.0958C26.1097 74.7448 26.0236 75.1489 25.5335 75.4672L22.4205 78.1852L26.4618 79.0427C26.8659 79.1285 27.0249 79.3734 27.343 79.8632L29.0796 83.6103L31.1522 79.8269C30.9932 79.582 31.4833 79.2637 31.4833 79.2637C31.4833 79.2637 31.8874 79.3495 32.1325 79.1903L36.4318 78.8357L33.715 75.7252Z" fill="#1c6dd0"/>
<path d="M20.8442 141.133C20.6721 141.941 21.3943 142.517 22.2026 142.689L40.5732 144.687C40.9773 144.772 41.2224 144.613 41.4675 144.454C41.7125 144.295 42.0436 143.732 42.1297 143.328C42.3017 142.519 41.5795 141.944 40.7713 141.772L22.4006 139.774C21.7514 139.848 21.0162 140.325 20.8442 141.133Z" fill="#1c6dd0"/>
<path d="M8.24637 109.592C8.9816 109.115 9.15365 108.307 8.67651 107.572L6.13174 103.653C5.65459 102.919 4.84634 102.747 4.11112 103.224C3.37589 103.702 3.20384 104.51 3.68098 105.245L6.22576 109.163C6.7029 109.898 7.51115 110.07 8.24637 109.592Z" fill="#1c6dd0"/>
<path d="M16.4104 121.385C17.1457 120.908 17.3177 120.099 16.8406 119.365L14.2958 115.446C13.8187 114.711 13.0104 114.54 12.2752 115.017C11.54 115.495 11.3679 116.303 11.845 117.038L14.3898 120.956C14.867 121.691 15.6752 121.863 16.4104 121.385Z" fill="#1c6dd0"/>
<path d="M12.7532 110.513C13.2304 111.247 14.0386 111.419 14.7739 110.941L18.6951 108.395C19.4303 107.918 19.6023 107.109 19.1252 106.375C18.6481 105.64 17.8398 105.468 17.1046 105.946L13.1834 108.492C12.4482 108.97 12.2761 109.778 12.7532 110.513Z" fill="#1c6dd0"/>
<path d="M2.9809 118.199L6.9021 115.652C7.63733 115.175 7.80938 114.366 7.33223 113.632C6.85509 112.897 6.04684 112.725 5.31162 113.203L1.39041 115.749C0.655189 116.227 0.483136 117.035 0.96028 117.77C1.43743 118.504 2.24567 118.676 2.9809 118.199Z" fill="#1c6dd0"/>
<path d="M228.545 6.21571C228.837 6.21571 229.42 6.21571 229.711 5.92661L232.918 2.74645C233.501 2.16824 233.501 1.30093 232.918 0.72272C232.335 0.14451 231.461 0.14451 230.878 0.72272L227.671 3.61377C227.088 4.19198 227.088 5.05929 227.671 5.6375C227.962 5.92661 228.254 6.21571 228.545 6.21571Z" fill="#1c6dd0"/>
<path d="M220.964 10.2632L217.757 13.4434C217.174 14.0216 217.174 14.8889 217.757 15.4671C218.048 15.7562 218.34 15.7562 218.923 15.7562C219.506 15.7562 219.797 15.7562 220.089 15.4671L223.296 12.287C223.879 11.7088 223.879 10.8415 223.296 10.2632C222.713 9.68504 221.547 9.68504 220.964 10.2632Z" fill="#1c6dd0"/>
<path d="M227.668 12.2869L230.875 15.4671C231.167 15.7562 231.458 15.7562 232.041 15.7562C232.624 15.7562 232.916 15.7562 233.208 15.4671C233.791 14.8889 233.791 14.0215 233.208 13.4433L230.001 10.2632C229.418 9.68498 228.543 9.68498 227.96 10.2632C227.377 10.8414 227.085 11.7087 227.668 12.2869Z" fill="#1c6dd0"/>
<path d="M223.004 3.61381L219.797 0.433657C219.214 -0.144552 218.34 -0.144552 217.757 0.433657C217.174 1.01187 217.174 1.87918 217.757 2.45739L220.964 5.63754C221.255 5.92665 221.547 5.92665 222.13 5.92665C222.713 5.92665 223.004 5.92665 223.296 5.63754C223.587 5.05933 223.587 4.19202 223.004 3.61381Z" fill="#1c6dd0"/>
<path d="M264.419 84.695L253.867 92.6157C253.281 93.2024 252.988 94.0824 253.574 94.6692C253.867 94.9625 254.161 95.2559 254.747 95.2559C255.04 95.2559 255.333 95.2559 255.626 94.9625L265.884 87.0419C266.47 86.4552 266.763 85.5751 266.177 84.9884C265.884 84.1083 265.005 84.1083 264.419 84.695Z" fill="#1c6dd0"/>
<path fill-rule="evenodd" clip-rule="evenodd" d="M237.904 116.036C242.007 116.036 245.231 119.263 245.231 123.37C245.231 127.477 242.007 130.704 237.904 130.704C233.801 130.704 230.577 127.477 230.577 123.37C230.577 119.263 233.801 116.036 237.904 116.036ZM233.507 123.37C233.507 125.717 235.558 127.77 237.903 127.77C240.541 127.77 242.299 125.717 242.299 123.37C242.299 121.023 240.248 118.969 237.903 118.969C235.558 118.969 233.507 121.023 233.507 123.37Z" fill="#1c6dd0"/>
<path fill-rule="evenodd" clip-rule="evenodd" d="M243.298 158.251C243.767 158.251 244.002 158.486 244.237 158.956C244.237 159.425 244.237 159.895 244.002 160.365L240.248 163.888L241.186 169.055C241.186 169.524 241.186 169.994 240.717 170.229C240.483 170.464 240.248 170.464 240.013 170.464C240.013 170.464 239.779 170.229 239.544 170.229L234.851 167.88L230.158 170.229C229.924 170.464 229.454 170.464 228.985 170.229C228.516 169.994 228.516 169.524 228.516 169.055L229.22 163.653L225.466 160.13C225.231 159.895 224.996 159.425 225.231 158.956C225.286 158.9 225.342 158.832 225.4 158.759C225.589 158.525 225.811 158.251 226.17 158.251L231.332 157.547L233.678 152.849C234.147 152.145 235.32 152.145 235.79 152.849L238.136 157.547L243.298 158.251ZM237.901 163.653C237.667 163.418 237.901 162.948 238.136 162.713L240.482 160.365L237.197 159.895C236.728 159.66 236.494 159.425 236.259 159.191L234.851 156.137L233.443 159.191C233.209 159.66 232.974 159.895 232.505 159.895L229.22 160.365L231.566 162.713C231.801 162.948 231.801 163.183 231.801 163.653L231.331 166.941L234.382 165.297C234.382 165.062 234.851 165.062 234.851 165.062C234.851 165.062 235.086 165.297 235.32 165.297L238.371 166.941L237.901 163.653Z" fill="#1c6dd0"/>
<path fill-rule="evenodd" clip-rule="evenodd" d="M73.6673 149.18C74.1366 149.18 74.3712 149.415 74.6059 149.884C74.6059 150.354 74.6059 150.824 74.3712 151.293L70.617 154.816L71.5556 159.983C71.5556 160.453 71.5556 160.923 71.0863 161.157C70.8516 161.392 70.617 161.392 70.3824 161.392C70.3824 161.392 70.1477 161.157 69.9131 161.157L65.2203 158.809L60.5275 161.157C60.2929 161.392 59.8236 161.392 59.3543 161.157C58.8851 160.923 58.8851 160.453 58.8851 159.983L59.589 154.581L55.8348 151.059C55.6001 150.824 55.3655 150.354 55.6001 149.884C55.6555 149.829 55.7109 149.76 55.7694 149.688C55.9586 149.454 56.1802 149.18 56.5387 149.18L61.7007 148.475L64.0471 143.778C64.5164 143.073 65.6896 143.073 66.1589 143.778L68.5053 148.475L73.6673 149.18ZM68.2705 154.581C68.0359 154.347 68.2705 153.877 68.5051 153.642L70.8515 151.293L67.5666 150.824C67.0973 150.589 66.8627 150.354 66.628 150.119L65.2202 147.066L63.8124 150.119C63.5777 150.589 63.3431 150.824 62.8738 150.824L59.5889 151.293L61.9353 153.642C62.1699 153.877 62.1699 154.112 62.1699 154.581L61.7006 157.869L64.7509 156.225C64.7509 155.991 65.2202 155.991 65.2202 155.991C65.2202 155.991 65.4548 156.225 65.6895 156.225L68.7398 157.869L68.2705 154.581Z" fill="#1c6dd0"/>
<path d="M272.457 123.212C272.457 122.332 271.871 121.745 270.992 121.745C270.113 121.745 269.526 122.332 269.526 123.212V127.905C269.526 128.785 270.113 129.372 270.992 129.372C271.871 129.372 272.457 128.785 272.457 127.905V123.212Z" fill="#1c6dd0"/>
<path d="M270.992 135.826C270.113 135.826 269.526 136.413 269.526 137.293V141.986C269.526 142.866 270.113 143.453 270.992 143.453C271.871 143.453 272.457 142.866 272.457 141.986V137.293C272.457 136.413 271.871 135.826 270.992 135.826Z" fill="#1c6dd0"/>
<path d="M274.214 132.599C274.214 133.479 274.8 134.066 275.679 134.066H280.369C281.248 134.066 281.834 133.479 281.834 132.599C281.834 131.719 281.248 131.132 280.369 131.132H275.679C274.8 131.132 274.214 131.719 274.214 132.599Z" fill="#1c6dd0"/>
<path d="M266.3 131.132H261.611C260.732 131.132 260.146 131.719 260.146 132.599C260.146 133.479 260.732 134.066 261.611 134.066H266.3C267.18 134.066 267.766 133.479 267.766 132.599C267.766 131.719 267.18 131.132 266.3 131.132Z" fill="#1c6dd0"/>
</g>
</svg>
