<svg width="24" height="24" viewBox="0 0 24 24" fill="none" xmlns="http://www.w3.org/2000/svg">
<path fill-rule="evenodd" clip-rule="evenodd" d="M17.8182 2.45455C17.8182 2.45455 16.4545 2 15.5455 2C12.3636 2 9.63636 3.81818 9.63636 6.54545V9.27273H6.91761C6.41083 9.27273 6 9.67578 6 10.1903V11.9915C6 12.4983 6.40305 12.9091 6.91761 12.9091H9.63636V21.0951C9.63636 21.5949 10.0394 22 10.554 22H12.3551C12.8619 22 13.2727 21.5858 13.2727 21.0951V12.9091H15.9915C16.4983 12.9091 17.0064 12.5199 17.1292 12.0288L17.5981 10.153C17.7197 9.66683 17.4148 9.27273 16.9093 9.27273H13.2727V7.45455C13.2727 6.45039 14.0854 5.63636 15.0953 5.63636H17.8182V2.45455Z" stroke="white" stroke-width="2" stroke-linejoin="round"/>
</svg>
