<svg width="30" height="30" viewBox="0 0 30 30" fill="none" xmlns="http://www.w3.org/2000/svg">
<path d="M23.125 12.5L23.6804 11.996C23.5383 11.8393 23.3365 11.75 23.125 11.75V12.5ZM27.5 17.3214H28.25C28.25 17.1351 28.1806 16.9554 28.0554 16.8174L27.5 17.3214ZM27.5 22.5L27.5001 23.25C27.9143 23.2499 28.25 22.9142 28.25 22.5H27.5ZM24.8934 22.5004L24.1863 22.7502L24.1863 22.7502L24.8934 22.5004ZM21.3566 22.5004L22.0637 22.7502L22.0637 22.7502L21.3566 22.5004ZM18.75 12.5V11.75C18.3358 11.75 18 12.0858 18 12.5H18.75ZM1.25 6.75C0.835786 6.75 0.5 7.08579 0.5 7.5C0.5 7.91421 0.835786 8.25 1.25 8.25V6.75ZM18.75 7.5H19.5C19.5 7.08579 19.1642 6.75 18.75 6.75V7.5ZM5.0002 21.75C4.58599 21.7499 4.25011 22.0856 4.25 22.4998C4.24989 22.914 4.58558 23.2499 4.9998 23.25L5.0002 21.75ZM5.625 15.75C6.03921 15.75 6.375 15.4142 6.375 15C6.375 14.5858 6.03921 14.25 5.625 14.25V15.75ZM3.75 14.25C3.33579 14.25 3 14.5858 3 15C3 15.4142 3.33579 15.75 3.75 15.75V14.25ZM5.625 19.5C6.03921 19.5 6.375 19.1642 6.375 18.75C6.375 18.3358 6.03921 18 5.625 18V19.5ZM5 18C4.58579 18 4.25 18.3358 4.25 18.75C4.25 19.1642 4.58579 19.5 5 19.5V18ZM5.625 12C6.03921 12 6.375 11.6642 6.375 11.25C6.375 10.8358 6.03921 10.5 5.625 10.5V12ZM2.5 10.5C2.08579 10.5 1.75 10.8358 1.75 11.25C1.75 11.6642 2.08579 12 2.5 12V10.5ZM22.5696 13.004L26.9446 17.8254L28.0554 16.8174L23.6804 11.996L22.5696 13.004ZM26.75 17.3214V22.5H28.25V17.3214H26.75ZM27.4999 21.75L24.8933 21.7504L24.8935 23.2504L27.5001 23.25L27.4999 21.75ZM25.6006 22.2506C25.2408 21.2318 24.2693 20.5 23.125 20.5V22C23.6137 22 24.0315 22.3121 24.1863 22.7502L25.6006 22.2506ZM23.125 20.5C21.9807 20.5 21.0092 21.2318 20.6494 22.2506L22.0637 22.7502C22.2185 22.3121 22.6363 22 23.125 22V20.5ZM21.3567 21.7504L18.7501 21.75L18.7499 23.25L21.3565 23.2504L21.3567 21.7504ZM19.5 22.5V12.5H18V22.5H19.5ZM18.75 13.25H23.125V11.75H18.75V13.25ZM1.25 8.25H18.75V6.75H1.25V8.25ZM18 7.5V22.5H19.5V7.5H18ZM18.75 21.75L9.89341 21.7504L9.89347 23.2504L18.75 23.25L18.75 21.75ZM10.6006 22.2506C10.2408 21.2318 9.2693 20.5 8.125 20.5V22C8.61374 22 9.03152 22.3121 9.18626 22.7502L10.6006 22.2506ZM8.125 20.5C6.9807 20.5 6.00924 21.2318 5.64938 22.2506L7.06374 22.7502C7.21848 22.3121 7.63626 22 8.125 22V20.5ZM6.35676 21.7504L5.0002 21.75L4.9998 23.25L6.35636 23.2504L6.35676 21.7504ZM23.125 22C23.7463 22 24.25 22.5037 24.25 23.125H25.75C25.75 21.6753 24.5747 20.5 23.125 20.5V22ZM24.25 23.125C24.25 23.7463 23.7463 24.25 23.125 24.25V25.75C24.5747 25.75 25.75 24.5747 25.75 23.125H24.25ZM23.125 24.25C22.5037 24.25 22 23.7463 22 23.125H20.5C20.5 24.5747 21.6753 25.75 23.125 25.75V24.25ZM22 23.125C22 22.5037 22.5037 22 23.125 22V20.5C21.6753 20.5 20.5 21.6753 20.5 23.125H22ZM8.125 22C8.74632 22 9.25 22.5037 9.25 23.125H10.75C10.75 21.6753 9.57475 20.5 8.125 20.5V22ZM9.25 23.125C9.25 23.7463 8.74632 24.25 8.125 24.25V25.75C9.57475 25.75 10.75 24.5747 10.75 23.125H9.25ZM8.125 24.25C7.50368 24.25 7 23.7463 7 23.125H5.5C5.5 24.5747 6.67525 25.75 8.125 25.75V24.25ZM7 23.125C7 22.5037 7.50368 22 8.125 22V20.5C6.67525 20.5 5.5 21.6753 5.5 23.125H7ZM5.625 14.25H3.75V15.75H5.625V14.25ZM5.625 18H5V19.5H5.625V18ZM5.625 10.5H2.5V12H5.625V10.5ZM20.6494 22.2506C20.5524 22.5251 20.5 22.8197 20.5 23.125H22C22 22.9923 22.0227 22.8664 22.0637 22.7502L20.6494 22.2506ZM25.75 23.125C25.75 22.8197 25.6976 22.5251 25.6006 22.2506L24.1863 22.7502C24.2273 22.8664 24.25 22.9923 24.25 23.125H25.75ZM5.64938 22.2506C5.55242 22.5251 5.5 22.8197 5.5 23.125H7C7 22.9923 7.02268 22.8664 7.06374 22.7502L5.64938 22.2506ZM10.75 23.125C10.75 22.8197 10.6976 22.5251 10.6006 22.2506L9.18626 22.7502C9.22732 22.8664 9.25 22.9923 9.25 23.125H10.75Z" fill="#D9A362"/>
</svg>
