<svg width="20" height="20" viewBox="0 0 20 20" fill="none" xmlns="http://www.w3.org/2000/svg">
<path fill-rule="evenodd" clip-rule="evenodd" d="M2.58873 4.62829L9.99992 9.81612L17.4111 4.62829C17.2733 4.35577 16.9899 4.16667 16.6666 4.16667H3.33325C3.00995 4.16667 2.72655 4.35577 2.58873 4.62829ZM17.4999 6.60055L10.4778 11.516C10.1909 11.7169 9.80897 11.7169 9.52203 11.516L2.49992 6.60055V15C2.49992 15.4564 2.87682 15.8333 3.33325 15.8333H16.6666C17.123 15.8333 17.4999 15.4564 17.4999 15V6.60055ZM0.833252 5C0.833252 3.6231 1.95635 2.5 3.33325 2.5H16.6666C18.0435 2.5 19.1666 3.6231 19.1666 5V15C19.1666 16.3769 18.0435 17.5 16.6666 17.5H3.33325C1.95635 17.5 0.833252 16.3769 0.833252 15V5Z" fill="#1C6DD0"/>
</svg>
