<svg width="37" height="37" viewBox="0 0 37 37" fill="none" xmlns="http://www.w3.org/2000/svg">
<path fill-rule="evenodd" clip-rule="evenodd" d="M18.625 2.35938C19.4448 2.35938 20.1094 3.02395 20.1094 3.84375V9.78125C20.1094 10.601 19.4448 11.2656 18.625 11.2656C17.8052 11.2656 17.1406 10.601 17.1406 9.78125V3.84375C17.1406 3.02395 17.8052 2.35938 18.625 2.35938ZM7.08086 7.14336C7.66054 6.56367 8.6004 6.56367 9.18008 7.14336L13.3809 11.3441C13.9605 11.9238 13.9605 12.8637 13.3809 13.4434C12.8012 14.023 11.8613 14.023 11.2816 13.4434L7.08086 9.24258C6.50117 8.6629 6.50117 7.72304 7.08086 7.14336ZM30.1691 7.14336C30.7488 7.72304 30.7488 8.6629 30.1691 9.24258L25.9684 13.4434C25.3887 14.023 24.4488 14.023 23.8691 13.4434C23.2895 12.8637 23.2895 11.9238 23.8691 11.3441L28.0699 7.14336C28.6496 6.56367 29.5895 6.56367 30.1691 7.14336ZM2.29688 18.6875C2.29688 17.8677 2.96145 17.2031 3.78125 17.2031H9.71875C10.5385 17.2031 11.2031 17.8677 11.2031 18.6875C11.2031 19.5073 10.5385 20.1719 9.71875 20.1719H3.78125C2.96145 20.1719 2.29688 19.5073 2.29688 18.6875ZM26.0469 18.6875C26.0469 17.8677 26.7115 17.2031 27.5312 17.2031H33.4688C34.2885 17.2031 34.9531 17.8677 34.9531 18.6875C34.9531 19.5073 34.2885 20.1719 33.4688 20.1719H27.5312C26.7115 20.1719 26.0469 19.5073 26.0469 18.6875ZM13.3809 23.9316C13.9605 24.5113 13.9605 25.4512 13.3809 26.0309L9.18008 30.2316C8.6004 30.8113 7.66054 30.8113 7.08086 30.2316C6.50117 29.652 6.50117 28.7121 7.08086 28.1324L11.2816 23.9316C11.8613 23.352 12.8012 23.352 13.3809 23.9316ZM23.8691 23.9316C24.4488 23.352 25.3887 23.352 25.9684 23.9316L30.1691 28.1324C30.7488 28.7121 30.7488 29.652 30.1691 30.2316C29.5895 30.8113 28.6496 30.8113 28.0699 30.2316L23.8691 26.0309C23.2895 25.4512 23.2895 24.5113 23.8691 23.9316ZM18.625 26.1094C19.4448 26.1094 20.1094 26.774 20.1094 27.5938V33.5312C20.1094 34.351 19.4448 35.0156 18.625 35.0156C17.8052 35.0156 17.1406 34.351 17.1406 33.5312V27.5938C17.1406 26.774 17.8052 26.1094 18.625 26.1094Z" fill="#202020"/>
<path fill-rule="evenodd" clip-rule="evenodd" d="M18.625 26.1094C19.4448 26.1094 20.1094 26.774 20.1094 27.5938V33.5312C20.1094 34.351 19.4448 35.0156 18.625 35.0156C17.8052 35.0156 17.1406 34.351 17.1406 33.5312V27.5938C17.1406 26.774 17.8052 26.1094 18.625 26.1094Z" fill="#DC2626"/>
<path fill-rule="evenodd" clip-rule="evenodd" d="M2.29688 18.6875C2.29688 17.8677 2.96145 17.2031 3.78125 17.2031H9.71875C10.5385 17.2031 11.2031 17.8677 11.2031 18.6875C11.2031 19.5073 10.5385 20.1719 9.71875 20.1719H3.78125C2.96145 20.1719 2.29688 19.5073 2.29688 18.6875Z" fill="#EAC608"/>
<path fill-rule="evenodd" clip-rule="evenodd" d="M18.625 2.35938C19.4448 2.35938 20.1094 3.02395 20.1094 3.84375V9.78125C20.1094 10.601 19.4448 11.2656 18.625 11.2656C17.8052 11.2656 17.1406 10.601 17.1406 9.78125V3.84375C17.1406 3.02395 17.8052 2.35938 18.625 2.35938Z" fill="#2563EB"/>
<path fill-rule="evenodd" clip-rule="evenodd" d="M26.0469 18.6875C26.0469 17.8677 26.7115 17.2031 27.5313 17.2031H33.4688C34.2885 17.2031 34.9531 17.8677 34.9531 18.6875C34.9531 19.5073 34.2885 20.1719 33.4688 20.1719H27.5313C26.7115 20.1719 26.0469 19.5073 26.0469 18.6875Z" fill="#22C55E"/>
</svg>
