<svg width="175" height="40" viewBox="0 0 175 40" fill="none" xmlns="http://www.w3.org/2000/svg">
<path d="M59.6475 27.8376C58.0575 27.8376 56.6175 27.4926 55.3275 26.8026C54.0525 26.1126 53.04 25.1526 52.29 23.9226C51.555 22.6776 51.1875 21.2526 51.1875 19.6476C51.1875 18.0426 51.555 16.6176 52.29 15.3726C53.04 14.1276 54.0525 13.1601 55.3275 12.4701C56.6175 11.7801 58.0575 11.4351 59.6475 11.4351C61.2225 11.4351 62.6475 11.7801 63.9225 12.4701C65.2125 13.1601 66.225 14.1276 66.96 15.3726C67.695 16.6176 68.0625 18.0426 68.0625 19.6476C68.0625 21.2526 67.695 22.6776 66.96 23.9226C66.225 25.1526 65.2125 26.1126 63.9225 26.8026C62.6475 27.4926 61.2225 27.8376 59.6475 27.8376ZM59.6475 24.1026C60.4425 24.1026 61.17 23.9226 61.83 23.5626C62.49 23.2026 63.015 22.6851 63.405 22.0101C63.795 21.3351 63.99 20.5476 63.99 19.6476C63.99 18.7476 63.795 17.9676 63.405 17.3076C63.03 16.6326 62.5125 16.1151 61.8525 15.7551C61.1925 15.3801 60.4575 15.1926 59.6475 15.1926C58.8225 15.1926 58.08 15.3801 57.42 15.7551C56.76 16.1151 56.235 16.6326 55.845 17.3076C55.47 17.9676 55.2825 18.7476 55.2825 19.6476C55.2825 20.5476 55.47 21.3351 55.845 22.0101C56.235 22.6851 56.76 23.2026 57.42 23.5626C58.095 23.9226 58.8375 24.1026 59.6475 24.1026Z" fill="black"/>
<path d="M69.6331 16.7001H73.3006V17.8701C73.7506 17.3901 74.2681 17.0226 74.8531 16.7676C75.4381 16.4976 76.0606 16.3626 76.7206 16.3626C77.5306 16.3626 78.1756 16.4826 78.6556 16.7226C79.1506 16.9626 79.5481 17.3226 79.8481 17.8026C80.2981 17.3526 80.8456 17.0001 81.4906 16.7451C82.1356 16.4901 82.7881 16.3626 83.4481 16.3626C84.8731 16.3626 85.8856 16.7301 86.4856 17.4651C87.0856 18.1851 87.3856 19.2276 87.3856 20.5926V27.5001H83.6056V21.1551C83.6056 20.5551 83.4931 20.1201 83.2681 19.8501C83.0431 19.5801 82.6681 19.4451 82.1431 19.4451C81.4681 19.4451 80.9206 19.6851 80.5006 20.1651C80.5156 20.4201 80.5231 20.8101 80.5231 21.3351V27.5001H76.7431V20.9976C76.7431 20.4426 76.6456 20.0451 76.4506 19.8051C76.2556 19.5651 75.9106 19.4451 75.4156 19.4451C74.6506 19.4451 73.9906 19.8726 73.4356 20.7276V27.5001H69.6331V16.7001Z" fill="black"/>
<path d="M89.2986 16.7001H93.1236V17.8926C93.5886 17.3826 94.1511 17.0001 94.8111 16.7451C95.4711 16.4901 96.1611 16.3626 96.8811 16.3626C98.3961 16.3626 99.5136 16.7601 100.234 17.5551C100.969 18.3351 101.336 19.4001 101.336 20.7501V27.5001H97.3761V21.2676C97.3761 20.0526 96.8211 19.4451 95.7111 19.4451C95.2011 19.4451 94.7361 19.5651 94.3161 19.8051C93.8961 20.0301 93.5436 20.3826 93.2586 20.8626V27.5001H89.2986V16.7001Z" fill="black"/>
<path d="M105.366 15.2601C104.766 15.2601 104.264 15.0651 103.859 14.6751C103.454 14.2851 103.251 13.7901 103.251 13.1901C103.251 12.6051 103.454 12.1176 103.859 11.7276C104.264 11.3226 104.766 11.1201 105.366 11.1201C105.951 11.1201 106.446 11.3226 106.851 11.7276C107.271 12.1176 107.481 12.6051 107.481 13.1901C107.481 13.7751 107.271 14.2701 106.851 14.6751C106.446 15.0651 105.951 15.2601 105.366 15.2601ZM103.386 16.7001H107.346V27.5001H103.386V16.7001Z" fill="black"/>
<path d="M114.171 27.8376C113.301 27.8376 112.393 27.7476 111.448 27.5676C110.503 27.4026 109.753 27.1626 109.198 26.8476V23.9451C109.813 24.3051 110.548 24.6051 111.403 24.8451C112.273 25.0701 113.068 25.1826 113.788 25.1826C114.313 25.1826 114.696 25.1451 114.936 25.0701C115.176 24.9951 115.296 24.8451 115.296 24.6201C115.296 24.4401 115.213 24.2976 115.048 24.1926C114.898 24.0726 114.613 23.9526 114.193 23.8326C113.788 23.6976 113.316 23.5551 112.776 23.4051C111.861 23.1351 111.141 22.8576 110.616 22.5726C110.091 22.2876 109.701 21.9276 109.446 21.4926C109.191 21.0576 109.063 20.5101 109.063 19.8501C109.063 18.6801 109.521 17.8101 110.436 17.2401C111.366 16.6551 112.633 16.3626 114.238 16.3626C115.018 16.3626 115.836 16.4451 116.691 16.6101C117.561 16.7751 118.213 16.9926 118.648 17.2626V20.1201C118.198 19.8201 117.598 19.5726 116.848 19.3776C116.113 19.1826 115.423 19.0851 114.778 19.0851C114.268 19.0851 113.871 19.1376 113.586 19.2426C113.301 19.3326 113.158 19.4976 113.158 19.7376C113.158 19.9626 113.301 20.1351 113.586 20.2551C113.871 20.3751 114.381 20.5251 115.116 20.7051C115.596 20.8251 115.798 20.8776 115.723 20.8626C116.683 21.1176 117.426 21.4026 117.951 21.7176C118.476 22.0326 118.843 22.4076 119.053 22.8426C119.278 23.2626 119.391 23.8026 119.391 24.4626C119.391 25.4976 118.941 26.3226 118.041 26.9376C117.156 27.5376 115.866 27.8376 114.171 27.8376Z" fill="black"/>
<path d="M120.961 10.8726H124.921V17.8026C125.401 17.3226 125.949 16.9626 126.564 16.7226C127.194 16.4826 127.854 16.3626 128.544 16.3626C130.059 16.3626 131.176 16.7601 131.896 17.5551C132.631 18.3351 132.999 19.4001 132.999 20.7501V27.5001H129.039V21.2676C129.039 20.0526 128.484 19.4451 127.374 19.4451C126.864 19.4451 126.399 19.5651 125.979 19.8051C125.559 20.0301 125.206 20.3826 124.921 20.8626V27.5001H120.961V10.8726Z" fill="black"/>
<path d="M140.794 27.8376C139.459 27.8376 138.289 27.5976 137.284 27.1176C136.279 26.6226 135.499 25.9476 134.944 25.0926C134.404 24.2226 134.134 23.2251 134.134 22.1001C134.134 20.9751 134.404 19.9851 134.944 19.1301C135.499 18.2601 136.279 17.5851 137.284 17.1051C138.289 16.6101 139.459 16.3626 140.794 16.3626C142.129 16.3626 143.299 16.6101 144.304 17.1051C145.309 17.5851 146.082 18.2601 146.622 19.1301C147.177 19.9851 147.454 20.9751 147.454 22.1001C147.454 23.2251 147.177 24.2226 146.622 25.0926C146.082 25.9476 145.309 26.6226 144.304 27.1176C143.299 27.5976 142.129 27.8376 140.794 27.8376ZM140.794 24.7551C141.589 24.7551 142.219 24.5226 142.684 24.0576C143.164 23.5776 143.404 22.9251 143.404 22.1001C143.404 21.2751 143.164 20.6301 142.684 20.1651C142.219 19.6851 141.589 19.4451 140.794 19.4451C139.999 19.4451 139.362 19.6851 138.882 20.1651C138.417 20.6301 138.184 21.2751 138.184 22.1001C138.184 22.9251 138.417 23.5776 138.882 24.0576C139.362 24.5226 139.999 24.7551 140.794 24.7551Z" fill="black"/>
<path d="M149.02 16.7001H152.845V17.7801C153.85 16.8351 155.125 16.3626 156.67 16.3626C157.795 16.3626 158.793 16.6026 159.663 17.0826C160.533 17.5476 161.208 18.2151 161.688 19.0851C162.168 19.9401 162.408 20.9376 162.408 22.0776C162.408 23.2026 162.168 24.2076 161.688 25.0926C161.208 25.9626 160.533 26.6376 159.663 27.1176C158.808 27.5976 157.81 27.8376 156.67 27.8376C155.95 27.8376 155.26 27.7251 154.6 27.5001C153.955 27.2901 153.415 26.9976 152.98 26.6226V32.4276H149.02V16.7001ZM155.635 24.7551C156.445 24.7551 157.098 24.5151 157.593 24.0351C158.088 23.5551 158.335 22.9026 158.335 22.0776C158.335 21.2526 158.088 20.6076 157.593 20.1426C157.098 19.6626 156.445 19.4226 155.635 19.4226C155.035 19.4226 154.495 19.5801 154.015 19.8951C153.535 20.1951 153.19 20.6076 152.98 21.1326V23.0451C153.19 23.5701 153.535 23.9901 154.015 24.3051C154.495 24.6051 155.035 24.7551 155.635 24.7551Z" fill="black"/>
<path fill-rule="evenodd" clip-rule="evenodd" d="M21.5625 3.35938C22.3823 3.35938 23.0469 4.02395 23.0469 4.84375V10.7812C23.0469 11.601 22.3823 12.2656 21.5625 12.2656C20.7427 12.2656 20.0781 11.601 20.0781 10.7812V4.84375C20.0781 4.02395 20.7427 3.35938 21.5625 3.35938ZM10.0184 8.14336C10.598 7.56367 11.5379 7.56367 12.1176 8.14336L16.3184 12.3441C16.898 12.9238 16.898 13.8637 16.3184 14.4434C15.7387 15.023 14.7988 15.023 14.2191 14.4434L10.0184 10.2426C9.43867 9.6629 9.43867 8.72304 10.0184 8.14336ZM33.1066 8.14336C33.6863 8.72304 33.6863 9.6629 33.1066 10.2426L28.9059 14.4434C28.3262 15.023 27.3863 15.023 26.8066 14.4434C26.227 13.8637 26.227 12.9238 26.8066 12.3441L31.0074 8.14336C31.5871 7.56367 32.527 7.56367 33.1066 8.14336ZM5.23438 19.6875C5.23438 18.8677 5.89895 18.2031 6.71875 18.2031H12.6562C13.476 18.2031 14.1406 18.8677 14.1406 19.6875C14.1406 20.5073 13.476 21.1719 12.6562 21.1719H6.71875C5.89895 21.1719 5.23438 20.5073 5.23438 19.6875ZM28.9844 19.6875C28.9844 18.8677 29.649 18.2031 30.4688 18.2031H36.4062C37.226 18.2031 37.8906 18.8677 37.8906 19.6875C37.8906 20.5073 37.226 21.1719 36.4062 21.1719H30.4688C29.649 21.1719 28.9844 20.5073 28.9844 19.6875ZM16.3184 24.9316C16.898 25.5113 16.898 26.4512 16.3184 27.0309L12.1176 31.2316C11.5379 31.8113 10.598 31.8113 10.0184 31.2316C9.43867 30.652 9.43867 29.7121 10.0184 29.1324L14.2191 24.9316C14.7988 24.352 15.7387 24.352 16.3184 24.9316ZM26.8066 24.9316C27.3863 24.352 28.3262 24.352 28.9059 24.9316L33.1066 29.1324C33.6863 29.7121 33.6863 30.652 33.1066 31.2316C32.527 31.8113 31.5871 31.8113 31.0074 31.2316L26.8066 27.0309C26.227 26.4512 26.227 25.5113 26.8066 24.9316ZM21.5625 27.1094C22.3823 27.1094 23.0469 27.774 23.0469 28.5938V34.5312C23.0469 35.351 22.3823 36.0156 21.5625 36.0156C20.7427 36.0156 20.0781 35.351 20.0781 34.5312V28.5938C20.0781 27.774 20.7427 27.1094 21.5625 27.1094Z" fill="#202020"/>
<path fill-rule="evenodd" clip-rule="evenodd" d="M21.5625 27.1094C22.3823 27.1094 23.0469 27.774 23.0469 28.5938V34.5312C23.0469 35.351 22.3823 36.0156 21.5625 36.0156C20.7427 36.0156 20.0781 35.351 20.0781 34.5312V28.5938C20.0781 27.774 20.7427 27.1094 21.5625 27.1094Z" fill="#DC2626"/>
<path fill-rule="evenodd" clip-rule="evenodd" d="M5.23438 19.6875C5.23438 18.8677 5.89895 18.2031 6.71875 18.2031H12.6562C13.476 18.2031 14.1406 18.8677 14.1406 19.6875C14.1406 20.5073 13.476 21.1719 12.6562 21.1719H6.71875C5.89895 21.1719 5.23438 20.5073 5.23438 19.6875Z" fill="#EAC608"/>
<path fill-rule="evenodd" clip-rule="evenodd" d="M21.5625 3.35938C22.3823 3.35938 23.0469 4.02395 23.0469 4.84375V10.7812C23.0469 11.601 22.3823 12.2656 21.5625 12.2656C20.7427 12.2656 20.0781 11.601 20.0781 10.7812V4.84375C20.0781 4.02395 20.7427 3.35938 21.5625 3.35938Z" fill="#2563EB"/>
<path fill-rule="evenodd" clip-rule="evenodd" d="M28.9844 19.6875C28.9844 18.8677 29.649 18.2031 30.4688 18.2031H36.4062C37.226 18.2031 37.8906 18.8677 37.8906 19.6875C37.8906 20.5073 37.226 21.1719 36.4062 21.1719H30.4688C29.649 21.1719 28.9844 20.5073 28.9844 19.6875Z" fill="#22C55E"/>
</svg>
