<svg width="209" height="148" viewBox="0 0 209 148" fill="none" xmlns="http://www.w3.org/2000/svg">
<path d="M144.846 59.0997L144.846 59.0998L136.919 86.8432C136.074 89.7643 134.305 92.3329 131.877 94.1641C129.45 95.9949 126.494 96.99 123.454 97C123.454 97 123.453 97 123.453 97L81 97C79.4087 97 77.8826 97.6321 76.7574 98.7574C75.6321 99.8826 75 101.409 75 103C75 104.591 75.6321 106.117 76.7574 107.243C77.8826 108.368 79.4087 109 81 109H141C142.061 109 143.078 109.421 143.828 110.172C144.579 110.922 145 111.939 145 113C145 114.061 144.579 115.078 143.828 115.828C143.078 116.579 142.061 117 141 117H81C77.4167 117 73.9699 115.626 71.3692 113.161C68.7686 110.696 67.2121 107.327 67.0202 103.749C66.8283 100.171 68.0157 96.6557 70.3379 93.9267C72.6601 91.1977 75.9402 89.463 79.503 89.0797L80.6838 88.9527L80.3575 87.8107L72.1862 59.2113L72.185 59.1861L72.1532 59.0747L71.3756 56.351L71.3746 56.3473C71.0125 55.0972 70.2552 53.998 69.2161 53.2143C68.177 52.4306 66.9119 52.0046 65.6104 52H65.6069H61C59.9391 52 58.9217 51.5786 58.1716 50.8284C57.4214 50.0783 57 49.0609 57 48C57 46.9391 57.4214 45.9217 58.1716 45.1716C58.9217 44.4214 59.9391 44 61 44H65.6043C68.4894 44.0154 71.2996 44.9196 73.6523 46.5895C76.0057 48.26 77.7868 50.6154 78.7531 53.3348L78.9894 54H79.6953H141C141 54 141 54 141 54C141.619 54.0001 142.23 54.1439 142.784 54.4201C143.338 54.6963 143.82 55.0974 144.193 55.5918C144.566 56.0861 144.819 56.6602 144.932 57.269C145.045 57.8777 145.016 58.5044 144.846 59.0997ZM135.333 63.2747L135.697 62H134.372H82.6321H81.3066L81.6705 63.2746L87.5357 83.8135L87.5357 83.8137L88.8104 88.2747L89.0177 89H89.7719L123.456 89L123.459 89C124.762 88.9959 126.028 88.5698 127.067 87.7855C128.107 87.0011 128.865 85.9009 129.226 84.6498L129.227 84.6468L135.333 63.2747ZM84.8888 125.095C85.9577 124.381 87.2144 124 88.5 124C90.2239 124 91.8772 124.685 93.0962 125.904C94.3152 127.123 95 128.776 95 130.5C95 131.786 94.6188 133.042 93.9045 134.111C93.1903 135.18 92.1752 136.013 90.9874 136.505C89.7997 136.997 88.4928 137.126 87.2319 136.875C85.971 136.624 84.8128 136.005 83.9038 135.096C82.9948 134.187 82.3757 133.029 82.1249 131.768C81.8741 130.507 82.0028 129.2 82.4948 128.013C82.9867 126.825 83.8199 125.81 84.8888 125.095ZM124.889 125.095C125.958 124.381 127.214 124 128.5 124C130.224 124 131.877 124.685 133.096 125.904C134.315 127.123 135 128.776 135 130.5C135 131.786 134.619 133.042 133.905 134.111C133.19 135.18 132.175 136.013 130.987 136.505C129.8 136.997 128.493 137.126 127.232 136.875C125.971 136.624 124.813 136.005 123.904 135.096C122.995 134.187 122.376 133.029 122.125 131.768C121.874 130.507 122.003 129.2 122.495 128.013C122.987 126.825 123.82 125.81 124.889 125.095Z" fill="#FDEBDB" stroke="#01403A" stroke-width="2"/>
<path fill-rule="evenodd" clip-rule="evenodd" d="M38.8613 87.7374C35.894 87.7374 33.5625 85.4059 33.5625 82.4386C33.5625 79.4713 35.894 77.1398 38.8613 77.1398C41.8286 77.1398 44.16 79.4713 44.16 82.4386C44.16 85.4059 41.8286 87.7374 38.8613 87.7374ZM41.8292 82.4386C41.8292 80.743 40.3456 79.2593 38.65 79.2593C36.9544 79.2593 35.4707 80.743 35.4707 82.4386C35.4707 84.1342 36.7424 85.6179 38.65 85.6179C40.5575 85.6179 41.8292 84.1342 41.8292 82.4386Z" fill="#D9A362"/>
<path d="M12.9848 23.9026C12.5612 24.3475 12.773 25.0147 13.1966 25.4596L23.5747 34.3568C23.7865 34.5792 23.9983 34.5792 24.21 34.5792C24.4218 34.5792 24.8454 34.3568 25.0572 34.1344C25.4808 33.6895 25.269 33.0222 24.8454 32.5774L14.4674 23.6802C14.0438 23.2353 13.4084 23.4577 12.9848 23.9026Z" fill="#D9A362"/>
<path d="M187.714 28.4374C187.929 28.4374 188.145 28.4374 188.361 28.2122L195.913 22.1292C196.345 21.6787 196.56 21.0028 196.129 20.5522C195.697 20.1016 195.05 19.8763 194.618 20.3269L187.066 26.4098C186.635 26.8604 186.419 27.5363 186.85 27.9869C187.066 28.2122 187.498 28.4374 187.714 28.4374Z" fill="#D9A362"/>
<path fill-rule="evenodd" clip-rule="evenodd" d="M138.064 26.5313C138.064 23.4799 140.453 21.0823 143.493 21.0823C146.316 21.0823 148.705 23.4799 148.922 26.5313C148.922 29.5828 146.533 31.9803 143.493 31.9803C140.453 31.9803 138.064 29.5828 138.064 26.5313ZM140.236 26.3133C140.236 28.057 141.756 29.5827 143.494 29.5827C145.231 29.5827 146.751 28.057 146.751 26.3133C146.751 24.5697 145.231 23.0439 143.494 23.0439C141.756 23.0439 140.236 24.5697 140.236 26.3133Z" fill="#D9A362"/>
<path fill-rule="evenodd" clip-rule="evenodd" d="M166.233 43.5679C166.408 43.3507 166.613 43.0963 166.945 43.0963L171.722 42.4424L173.894 38.0832C173.894 37.6473 174.545 37.4293 174.762 37.4293C174.979 37.4293 175.414 37.6473 175.631 38.0832L177.802 42.4424L182.579 43.0963C183.014 43.0963 183.231 43.3142 183.448 43.7501C183.665 44.1861 183.448 44.622 183.231 44.8399L179.756 48.1093L180.625 52.9044C180.625 53.3404 180.625 53.7763 180.191 53.9942C179.974 54.2122 179.756 54.2122 179.539 54.2122C179.539 54.2122 179.322 53.9942 179.105 53.9942L174.762 51.8146L170.419 53.9942C170.202 54.2122 169.768 54.2122 169.333 53.9942C168.899 53.7763 168.899 53.3404 168.899 52.9044L169.768 48.1093L166.293 44.8399C166.076 44.622 165.859 44.1861 166.076 43.7501C166.128 43.6987 166.179 43.6351 166.233 43.5679ZM174.545 41.1346L173.242 43.9681C173.242 44.0771 173.134 44.1861 172.998 44.3223C172.862 44.4585 172.699 44.622 172.591 44.84L169.551 45.2759L171.722 47.4555C171.939 47.6734 171.939 47.8914 171.939 48.3273L171.505 51.3787L174.111 49.6351C174.111 49.4171 174.545 49.4171 174.545 49.4171C174.545 49.4171 174.762 49.6351 174.979 49.6351L177.802 51.1608L177.368 48.1093C177.151 47.8914 177.368 47.4555 177.585 47.2375L179.757 45.0579L176.717 44.622C176.282 44.404 176.065 44.1861 175.848 43.9681L174.545 41.1346Z" fill="#D9A362"/>
<path fill-rule="evenodd" clip-rule="evenodd" d="M79.2092 12.7499L84.0052 13.3906C84.4412 13.3906 84.6592 13.6041 84.8772 14.2448C85.0952 14.6719 84.8772 15.099 84.6592 15.3126L81.1712 18.5159L81.8252 23.0006C81.8252 23.4277 81.8252 23.8548 81.3892 24.0684C81.1712 24.282 80.9532 24.282 80.7352 24.282C80.7352 24.282 80.5172 24.0684 80.2992 24.0684L75.9392 21.9328L71.5792 24.0684C71.3612 24.282 70.9252 24.282 70.4892 24.0684C70.0532 23.8548 70.0532 23.4277 70.0532 23.0006L70.9252 18.3024L67.4372 15.099C67.2192 14.8855 67.0012 14.4584 67.2192 14.0313C67.2707 13.9808 67.3221 13.9185 67.3765 13.8527C67.5523 13.6398 67.7581 13.3906 68.0912 13.3906L72.8872 12.7499L75.0672 8.47879C75.5032 7.83812 76.5932 7.83812 77.0292 8.47879L79.2092 12.7499ZM78.9918 18.0888C78.7738 17.8753 78.9918 17.4482 79.2098 17.2346L81.3898 15.099L78.3378 14.6719C77.9018 14.4584 77.6838 14.2448 77.4658 14.0313L76.1578 11.255L74.8498 14.0313C74.6318 14.4584 74.4138 14.6719 73.9778 14.6719L70.9258 15.099L73.1058 17.2346C73.3238 17.4482 73.3238 17.6617 73.3238 18.0888L72.8878 21.0786L75.7218 19.5837C75.7218 19.3702 76.1578 19.3702 76.1578 19.3702C76.1578 19.3702 76.3758 19.5837 76.5938 19.5837L79.4278 21.0786L78.9918 18.0888Z" fill="#D9A362"/>
<path d="M37.338 9.5231C37.992 9.5231 38.4281 9.09599 38.4281 8.45532V5.03842C38.4281 4.39775 37.992 3.97064 37.338 3.97064C36.684 3.97064 36.248 4.39775 36.248 5.03842V8.45532C36.248 9.09599 36.902 9.5231 37.338 9.5231Z" fill="#D9A362"/>
<path d="M36.248 18.5245C36.248 19.1651 36.684 19.5923 37.338 19.5923C37.992 19.5923 38.4281 19.1651 38.4281 18.5245V15.1076C38.4281 14.4669 37.992 14.0398 37.338 14.0398C36.684 14.0398 36.248 14.4669 36.248 15.1076V18.5245Z" fill="#D9A362"/>
<path d="M44.1835 10.6834H40.6955C40.0415 10.6834 39.6055 11.1105 39.6055 11.7512C39.6055 12.3919 40.0415 12.819 40.6955 12.819H44.1835C44.8375 12.819 45.2735 12.3919 45.2735 11.7512C45.2735 11.1105 44.8375 10.6834 44.1835 10.6834Z" fill="#D9A362"/>
<path d="M34.1151 10.6834H30.6271C29.9731 10.6834 29.5371 11.1105 29.5371 11.7512C29.5371 12.3919 29.9731 12.819 30.6271 12.819H34.1151C34.7691 12.819 35.2051 12.3919 35.2051 11.7512C35.2051 11.1105 34.7691 10.6834 34.1151 10.6834Z" fill="#D9A362"/>
<path d="M120.691 11.6756C120.263 11.2477 119.622 11.2477 119.194 11.6756L116.84 14.0289C116.413 14.4568 116.413 15.0986 116.84 15.5265C117.054 15.7404 117.268 15.7404 117.696 15.7404C118.124 15.7404 118.338 15.7404 118.552 15.5265L120.905 13.1731C121.119 12.7453 121.119 12.1035 120.691 11.6756Z" fill="#D9A362"/>
<path d="M113.59 20.2759C114.018 19.848 114.018 19.2062 113.59 18.7783C113.162 18.3505 112.52 18.3505 112.092 18.7783L109.739 21.1316C109.311 21.5595 109.311 22.2013 109.739 22.6292C109.953 22.8431 110.167 22.8431 110.595 22.8431C111.023 22.8431 111.236 22.8431 111.45 22.6292L113.59 20.2759Z" fill="#D9A362"/>
<path d="M120.691 21.1316L118.338 18.7783C117.91 18.3504 117.268 18.3504 116.84 18.7783C116.413 19.2062 116.413 19.848 116.84 20.2759L119.194 22.6292C119.408 22.8431 119.622 22.8431 120.05 22.8431C120.477 22.8431 120.691 22.8431 120.905 22.6292C121.119 22.2013 121.119 21.5595 120.691 21.1316Z" fill="#D9A362"/>
<path d="M113.59 14.0289L111.236 11.6756C110.809 11.2477 110.167 11.2477 109.739 11.6756C109.311 12.1035 109.311 12.7453 109.739 13.1731L112.092 15.5265C112.306 15.7404 112.52 15.7404 112.948 15.7404C113.376 15.7404 113.59 15.7404 113.804 15.5265C114.018 15.0986 114.018 14.4568 113.59 14.0289Z" fill="#D9A362"/>
<path fill-rule="evenodd" clip-rule="evenodd" d="M26.4078 49.3407C26.7705 49.1052 27.0696 49.1686 27.4863 49.4133C27.7854 49.4768 27.8394 49.9571 27.7121 50.5551L26.5758 55.158L29.8906 58.6741C30.1259 59.0365 30.3613 59.399 30.1163 59.8158C30.0527 60.1148 29.8713 60.2326 29.69 60.3503C29.69 60.3503 29.3909 60.2869 29.2095 60.4047L24.4055 60.9478L21.9553 65.1156C21.8917 65.4146 21.5289 65.6502 21.0485 65.7045C20.5681 65.7588 20.3327 65.3963 20.0974 65.0338L18.2335 60.5756L13.5663 59.7414C13.2673 59.678 12.8505 59.4333 12.7965 58.953C12.8115 58.8824 12.82 58.8017 12.8289 58.7166C12.8579 58.4409 12.8918 58.1182 13.1688 57.9382L16.8056 54.8035L16.2652 50.001C16.2748 49.2218 17.1816 48.6329 17.8974 48.9411L22.0649 51.388L26.4078 49.3407ZM24.826 56.0367C24.527 55.9732 24.4729 55.493 24.5366 55.194L25.1732 52.2039L22.3988 53.4902C21.9184 53.5446 21.6194 53.4811 21.3203 53.4176L18.7021 51.7682L19.1441 54.8309C19.1981 55.3112 19.1344 55.6102 18.7717 55.8457L16.4681 57.857L19.4586 58.4916C19.7577 58.5551 19.8754 58.7363 20.1108 59.0988L21.3958 61.8717L22.9296 59.0719C22.8119 58.8907 23.1746 58.6552 23.1746 58.6552C23.1746 58.6552 23.4736 58.7186 23.655 58.6009L26.8365 58.3384L24.826 56.0367Z" fill="#D9A362"/>
<path d="M15.3029 104.439C15.1755 105.037 15.71 105.463 16.3081 105.589L29.9023 107.068C30.2014 107.131 30.3828 107.014 30.5641 106.896C30.7455 106.778 30.9905 106.361 31.0541 106.062C31.1815 105.464 30.647 105.038 30.0489 104.911L16.4547 103.433C15.9743 103.487 15.4302 103.841 15.3029 104.439Z" fill="#D9A362"/>
<path d="M5.98054 81.0983C6.52461 80.745 6.65193 80.147 6.29884 79.6032L4.41571 76.7035C4.06262 76.1598 3.46452 76.0328 2.92045 76.3862C2.37638 76.7395 2.24906 77.3375 2.60215 77.8812L4.48528 80.781C4.83837 81.3247 5.43647 81.4516 5.98054 81.0983Z" fill="#D9A362"/>
<path d="M12.0216 89.8249C12.5656 89.4716 12.6929 88.8736 12.3399 88.3299L10.4567 85.4301C10.1036 84.8864 9.50553 84.7595 8.96147 85.1128C8.4174 85.4661 8.29008 86.0641 8.64317 86.6078L10.5263 89.5076C10.8794 90.0513 11.4775 90.1782 12.0216 89.8249Z" fill="#D9A362"/>
<path d="M9.31504 81.7794C9.66813 82.3231 10.2662 82.45 10.8103 82.0967L13.712 80.2123C14.2561 79.859 14.3834 79.261 14.0303 78.7173C13.6772 78.1736 13.0791 78.0467 12.535 78.4L9.63334 80.2844C9.08927 80.6377 8.96195 81.2357 9.31504 81.7794Z" fill="#D9A362"/>
<path d="M2.08374 87.467L4.98543 85.5826C5.52949 85.2293 5.65681 84.6312 5.30372 84.0875C4.95064 83.5438 4.35254 83.4169 3.80847 83.7702L0.906778 85.6546C0.362711 86.0079 0.235391 86.6059 0.588479 87.1496C0.941566 87.6934 1.53967 87.8203 2.08374 87.467Z" fill="#D9A362"/>
<path d="M169 4.59965C169.216 4.59965 169.647 4.59965 169.863 4.38571L172.236 2.0324C172.668 1.60452 172.668 0.96271 172.236 0.534835C171.805 0.106959 171.157 0.106959 170.726 0.534835L168.353 2.67421C167.921 3.10209 167.921 3.7439 168.353 4.17177C168.569 4.38571 168.784 4.59965 169 4.59965Z" fill="#D9A362"/>
<path d="M163.39 7.59477L161.017 9.94808C160.585 10.376 160.585 11.0178 161.017 11.4456C161.233 11.6596 161.448 11.6596 161.88 11.6596C162.311 11.6596 162.527 11.6596 162.743 11.4456L165.116 9.09233C165.547 8.66446 165.547 8.02265 165.116 7.59477C164.684 7.1669 163.822 7.1669 163.39 7.59477Z" fill="#D9A362"/>
<path d="M168.352 9.09233L170.725 11.4456C170.941 11.6596 171.157 11.6596 171.588 11.6596C172.02 11.6596 172.236 11.6596 172.451 11.4456C172.883 11.0178 172.883 10.376 172.451 9.94808L170.078 7.59477C169.647 7.1669 169 7.1669 168.568 7.59477C168.137 8.02265 167.921 8.66446 168.352 9.09233Z" fill="#D9A362"/>
<path d="M164.9 2.67422L162.527 0.320906C162.096 -0.106969 161.448 -0.106969 161.017 0.320906C160.585 0.748782 160.585 1.39059 161.017 1.81847L163.39 4.17178C163.606 4.38572 163.822 4.38572 164.253 4.38572C164.684 4.38572 164.9 4.38572 165.116 4.17178C165.332 3.74391 165.332 3.10209 164.9 2.67422Z" fill="#D9A362"/>
<path d="M195.548 62.6744L187.74 68.5356C187.307 68.9698 187.09 69.621 187.524 70.0552C187.74 70.2723 187.957 70.4894 188.391 70.4894C188.608 70.4894 188.825 70.4894 189.042 70.2723L196.633 64.411C197.066 63.9769 197.283 63.3256 196.85 62.8914C196.633 62.2402 195.982 62.2402 195.548 62.6744Z" fill="#D9A362"/>
<path fill-rule="evenodd" clip-rule="evenodd" d="M175.928 85.8665C178.964 85.8665 181.35 88.2544 181.35 91.2935C181.35 94.3327 178.964 96.7206 175.928 96.7206C172.892 96.7206 170.506 94.3327 170.506 91.2935C170.506 88.2544 172.892 85.8665 175.928 85.8665ZM172.674 91.2935C172.674 93.0302 174.192 94.5498 175.927 94.5498C177.879 94.5498 179.18 93.0302 179.18 91.2935C179.18 89.5569 177.662 88.0373 175.927 88.0373C174.192 88.0373 172.674 89.5569 172.674 91.2935Z" fill="#D9A362"/>
<path fill-rule="evenodd" clip-rule="evenodd" d="M179.918 117.106C180.265 117.106 180.439 117.28 180.613 117.627C180.613 117.975 180.613 118.322 180.439 118.67L177.661 121.277L178.356 125.1C178.356 125.448 178.356 125.795 178.008 125.969C177.835 126.143 177.661 126.143 177.487 126.143C177.487 126.143 177.314 125.969 177.14 125.969L173.667 124.231L170.195 125.969C170.021 126.143 169.674 126.143 169.327 125.969C168.979 125.795 168.979 125.448 168.979 125.1L169.5 121.103L166.722 118.496C166.548 118.322 166.375 117.975 166.548 117.627C166.589 117.586 166.63 117.535 166.674 117.482C166.814 117.309 166.978 117.106 167.243 117.106L171.063 116.584L172.799 113.109C173.147 112.587 174.015 112.587 174.362 113.109L176.098 116.584L179.918 117.106ZM175.924 121.103C175.751 120.929 175.924 120.582 176.098 120.408L177.834 118.67L175.403 118.322C175.056 118.149 174.883 117.975 174.709 117.801L173.667 115.542L172.625 117.801C172.452 118.149 172.278 118.322 171.931 118.322L169.5 118.67L171.236 120.408C171.41 120.582 171.41 120.755 171.41 121.103L171.063 123.536L173.32 122.32C173.32 122.146 173.667 122.146 173.667 122.146C173.667 122.146 173.841 122.32 174.014 122.32L176.272 123.536L175.924 121.103Z" fill="#D9A362"/>
<path fill-rule="evenodd" clip-rule="evenodd" d="M54.3909 110.393C54.7381 110.393 54.9118 110.567 55.0854 110.914C55.0854 111.262 55.0854 111.61 54.9118 111.957L52.1336 114.564L52.8282 118.388C52.8282 118.735 52.8282 119.083 52.4809 119.257C52.3073 119.43 52.1336 119.43 51.96 119.43C51.96 119.43 51.7864 119.257 51.6127 119.257L48.1401 117.519L44.6674 119.257C44.4938 119.43 44.1465 119.43 43.7993 119.257C43.452 119.083 43.452 118.735 43.452 118.388L43.9729 114.39L41.1948 111.783C41.0211 111.61 40.8475 111.262 41.0211 110.914C41.0621 110.873 41.1031 110.823 41.1464 110.769C41.2864 110.596 41.4504 110.393 41.7157 110.393L45.5356 109.872L47.2719 106.396C47.6192 105.874 48.4873 105.874 48.8346 106.396L50.5709 109.872L54.3909 110.393ZM50.397 114.39C50.2234 114.216 50.397 113.869 50.5706 113.695L52.307 111.957L49.8761 111.61C49.5288 111.436 49.3552 111.262 49.1816 111.088L48.1398 108.829L47.098 111.088C46.9243 111.436 46.7507 111.61 46.4034 111.61L43.9726 111.957L45.7089 113.695C45.8825 113.869 45.8825 114.043 45.8825 114.39L45.5353 116.823L47.7925 115.607C47.7925 115.433 48.1398 115.433 48.1398 115.433C48.1398 115.433 48.3134 115.607 48.487 115.607L50.7443 116.823L50.397 114.39Z" fill="#D9A362"/>
<path d="M201.495 91.1766C201.495 90.5254 201.061 90.0912 200.411 90.0912C199.76 90.0912 199.326 90.5254 199.326 91.1766V94.6499C199.326 95.3012 199.76 95.7354 200.411 95.7354C201.061 95.7354 201.495 95.3012 201.495 94.6499V91.1766Z" fill="#D9A362"/>
<path d="M200.411 100.511C199.76 100.511 199.326 100.945 199.326 101.597V105.07C199.326 105.721 199.76 106.155 200.411 106.155C201.061 106.155 201.495 105.721 201.495 105.07V101.597C201.495 100.945 201.061 100.511 200.411 100.511Z" fill="#D9A362"/>
<path d="M202.795 98.1233C202.795 98.7745 203.229 99.2087 203.879 99.2087H207.349C208 99.2087 208.434 98.7745 208.434 98.1233C208.434 97.472 208 97.0378 207.349 97.0378H203.879C203.229 97.0378 202.795 97.472 202.795 98.1233Z" fill="#D9A362"/>
<path d="M196.939 97.0379H193.469C192.819 97.0379 192.385 97.472 192.385 98.1233C192.385 98.7745 192.819 99.2087 193.469 99.2087H196.939C197.59 99.2087 198.024 98.7745 198.024 98.1233C198.024 97.472 197.59 97.0379 196.939 97.0379Z" fill="#D9A362"/>
</svg>
