<svg width="24" height="24" viewBox="0 0 24 24" fill="none" xmlns="http://www.w3.org/2000/svg">
<circle cx="12" cy="12" r="12" fill="#0D0D0D"/>
<path d="M17.6568 6.6396C16.5555 5.58231 15.0313 5 13.3651 5C10.82 5 9.25463 6.04329 8.38963 6.91845C7.32356 7.99698 6.71228 9.42908 6.71228 10.8476C6.71228 12.6286 7.45725 13.9956 8.70479 14.5042C8.78854 14.5385 8.87282 14.5558 8.95545 14.5558C9.21863 14.5558 9.42717 14.3836 9.49942 14.1073C9.54154 13.9489 9.6391 13.5579 9.68154 13.3882C9.77235 13.053 9.69898 12.8918 9.50092 12.6584C9.1401 12.2315 8.97207 11.7266 8.97207 11.0696C8.97207 9.11798 10.4253 7.04385 13.1186 7.04385C15.2557 7.04385 16.5832 8.25848 16.5832 10.2137C16.5832 11.4475 16.3174 12.5901 15.8347 13.4312C15.4993 14.0157 14.9094 14.7123 14.0039 14.7123C13.6124 14.7123 13.2606 14.5515 13.0387 14.271C12.829 14.0059 12.7599 13.6635 12.8442 13.3066C12.9395 12.9033 13.0694 12.4827 13.1951 12.0761C13.4244 11.3334 13.6412 10.6319 13.6412 10.0723C13.6412 9.11502 13.0526 8.47179 12.1769 8.47179C11.0639 8.47179 10.1919 9.60224 10.1919 11.0454C10.1919 11.7531 10.38 12.2825 10.4651 12.4857C10.3249 13.0798 9.4916 16.6117 9.33354 17.2777C9.24213 17.6665 8.69157 20.7372 9.60285 20.9821C10.6267 21.2572 11.542 18.2665 11.6351 17.9286C11.7106 17.6537 11.9748 16.6144 12.1366 15.9756C12.6309 16.4517 13.4268 16.7735 14.2012 16.7735C15.661 16.7735 16.9739 16.1166 17.898 14.9239C18.7942 13.767 19.2878 12.1546 19.2878 10.3838C19.2877 8.99948 18.6932 7.63473 17.6568 6.6396Z" fill="white"/>
</svg>
