<svg width="30" height="30" viewBox="0 0 30 30" fill="none" xmlns="http://www.w3.org/2000/svg">
<circle cx="15" cy="15" r="15" fill="#7A1632"/>
<path d="M8.45117 15C8.45117 14.5481 8.81748 14.1818 9.26935 14.1818H20.7239C21.1758 14.1818 21.5421 14.5481 21.5421 15C21.5421 15.4518 21.1758 15.8181 20.7239 15.8181H9.26935C8.81748 15.8181 8.45117 15.4518 8.45117 15Z" fill="white"/>
<path d="M14.9966 8.4545C15.4485 8.4545 15.8148 8.82081 15.8148 9.27268L15.8148 20.7272C15.8148 21.1791 15.4485 21.5454 14.9966 21.5454C14.5448 21.5454 14.1784 21.1791 14.1784 20.7272L14.1784 9.27268C14.1784 8.82081 14.5448 8.4545 14.9966 8.4545Z" fill="white"/>
</svg>
