<svg width="20" height="20" viewBox="0 0 20 20" fill="none" xmlns="http://www.w3.org/2000/svg">
<path fill-rule="evenodd" clip-rule="evenodd" d="M4.16634 1.66665C4.16634 1.20641 4.53944 0.833313 4.99967 0.833313H14.9997C15.4599 0.833313 15.833 1.20641 15.833 1.66665V6.66665H16.6663C17.3294 6.66665 17.9653 6.93004 18.4341 7.39888C18.9029 7.86772 19.1663 8.5036 19.1663 9.16665V13.3333C19.1663 13.9964 18.9029 14.6322 18.4341 15.1011C17.9653 15.5699 17.3294 15.8333 16.6663 15.8333H15.833V18.3333C15.833 18.7935 15.4599 19.1666 14.9997 19.1666H4.99967C4.53944 19.1666 4.16634 18.7935 4.16634 18.3333V15.8333H3.33301C2.66997 15.8333 2.03408 15.5699 1.56524 15.1011C1.0964 14.6322 0.833008 13.9964 0.833008 13.3333V9.16665C0.833008 8.5036 1.0964 7.86772 1.56524 7.39888C2.03408 6.93004 2.66997 6.66665 3.33301 6.66665H4.16634V1.66665ZM3.33301 8.33331C3.11199 8.33331 2.90003 8.42111 2.74375 8.57739C2.58747 8.73367 2.49967 8.94563 2.49967 9.16665V13.3333C2.49967 13.5543 2.58747 13.7663 2.74375 13.9226C2.90003 14.0788 3.11199 14.1666 3.33301 14.1666H4.16634V11.6666C4.16634 11.2064 4.53944 10.8333 4.99967 10.8333H14.9997C15.4599 10.8333 15.833 11.2064 15.833 11.6666V14.1666H16.6663C16.8874 14.1666 17.0993 14.0788 17.2556 13.9226C17.4119 13.7663 17.4997 13.5543 17.4997 13.3333V9.16665C17.4997 8.94563 17.4119 8.73367 17.2556 8.57739C17.0993 8.42111 16.8874 8.33331 16.6663 8.33331H3.33301ZM14.1663 6.66665H5.83301V2.49998H14.1663V6.66665ZM14.1663 12.5H5.83301V17.5H14.1663V12.5Z" fill="#474E5A"/>
</svg>
