<svg width="159" height="137" viewBox="0 0 159 137" fill="none" xmlns="http://www.w3.org/2000/svg">
<path opacity="0.1" d="M64.9351 0C33.9847 9.09295 0 41.2212 0 85.4735C0 117.602 20.0267 137 41.2672 137C57.0458 137 69.1832 126.088 69.1832 110.327C69.1832 100.628 63.7214 86.6858 43.6947 84.8673C33.9847 84.2611 16.9924 82.4425 16.9924 64.2566C16.9924 38.7965 44.3015 12.1239 66.1489 3.63719L64.9351 0ZM154.752 0C123.802 9.09295 89.8168 41.2212 89.8168 85.4735C89.8168 117.602 109.844 137 131.084 137C146.863 137 159 126.088 159 110.327C159 100.628 153.538 86.6858 133.511 84.8673C123.802 84.2611 106.809 82.4425 106.809 64.2566C106.809 38.7965 134.118 12.1239 155.966 3.63719L154.752 0Z" fill="#A66E4E"/>
</svg>
