<svg width="34" height="34" viewBox="0 0 34 34" fill="none" xmlns="http://www.w3.org/2000/svg">
<path d="M22.3342 23.4724H11.665C11.1149 23.4724 10.6689 23.9183 10.6689 24.4684C10.6689 25.0186 11.1149 25.4645 11.665 25.4645H22.3342C22.8844 25.4645 23.3303 25.0186 23.3303 24.4684C23.3303 23.9183 22.8844 23.4724 22.3342 23.4724Z" fill="#404040"/>
<path d="M22.3342 19.3923H11.665C11.1149 19.3923 10.6689 19.8383 10.6689 20.3884C10.6689 20.9385 11.1149 21.3845 11.665 21.3845H22.3342C22.8844 21.3845 23.3303 20.9385 23.3303 20.3884C23.3303 19.8383 22.8844 19.3923 22.3342 19.3923Z" fill="#404040"/>
<path d="M22.3342 15.3123H11.665C11.1149 15.3123 10.6689 15.7583 10.6689 16.3084C10.6689 16.8585 11.1149 17.3045 11.665 17.3045H22.3342C22.8844 17.3045 23.3303 16.8585 23.3303 16.3084C23.3303 15.7583 22.8844 15.3123 22.3342 15.3123Z" fill="#404040"/>
<path d="M22.3342 11.2324H11.665C11.1149 11.2324 10.6689 11.6783 10.6689 12.2285C10.6689 12.7786 11.1149 13.2245 11.665 13.2245H22.3342C22.8844 13.2245 23.3303 12.7786 23.3303 12.2285C23.3303 11.6783 22.8844 11.2324 22.3342 11.2324Z" fill="#404040"/>
<path d="M22.3342 7.15234H11.665C11.1149 7.15234 10.6689 7.59833 10.6689 8.14844C10.6689 8.69855 11.1149 9.14453 11.665 9.14453H22.3342C22.8844 9.14453 23.3303 8.69855 23.3303 8.14844C23.3303 7.59833 22.8844 7.15234 22.3342 7.15234Z" fill="#404040"/>
<path d="M28.736 0H5.26367C4.71356 0 4.26758 0.445983 4.26758 0.996092V30.0698C4.26758 30.3339 4.37257 30.5873 4.55937 30.7741L7.49345 33.7082C7.8824 34.0972 8.51312 34.0972 8.90213 33.7082L11.1318 31.4785L13.3615 33.7082C13.5483 33.895 13.8016 34 14.0659 34C14.33 34 14.5834 33.8951 14.7702 33.7082L16.9998 31.4785L19.2295 33.7082C19.4163 33.895 19.6697 34 19.9338 34C20.1981 34 20.4514 33.895 20.6382 33.7082L22.8679 31.4785L25.0976 33.7082C25.2921 33.9027 25.547 34 25.8019 34C26.0568 34 26.3118 33.9028 26.5063 33.7082L29.4403 30.7741C29.6271 30.5873 29.7321 30.3339 29.7321 30.0698V0.996092C29.7321 0.445983 29.2862 0 28.736 0ZM25.8019 31.5952L23.5722 29.3655C23.3854 29.1786 23.132 29.0737 22.8678 29.0737C22.6036 29.0737 22.3502 29.1786 22.1634 29.3655L19.9338 31.5952L17.7041 29.3655C17.3151 28.9764 16.6844 28.9764 16.2954 29.3655L14.0657 31.5952L11.836 29.3655C11.6492 29.1786 11.3959 29.0737 11.1316 29.0737C10.8675 29.0737 10.6141 29.1786 10.4273 29.3655L8.19763 31.5952L6.25963 29.6572V1.99218H27.7398V29.6572H27.7399L25.8019 31.5952Z" fill="#404040"/>
</svg>
