<svg width="73" height="81" viewBox="0 0 73 81" fill="none" xmlns="http://www.w3.org/2000/svg">
<g clip-path="url(#clip0)">
<path d="M50.9251 36.262L62.5296 20.7328L71.2965 9.08589L36.7794 9.04707C35.6169 6.38982 33.7045 4.12939 31.2766 2.54273C28.8486 0.956076 26.0106 0.112116 23.1102 0.114262C22.789 0.114262 22.4749 0.114262 22.1608 0.146026H12.7339V0.114262H0.144653V48.8194H12.7339V31.8361L30.2077 63.9533L38.5053 52.8711L41.5264 48.8194H61.8802L71.3283 36.2796L50.9251 36.262ZM21.1055 20.4469H12.7056V9.66824H17.2585H20.6679C20.7808 9.66824 20.8938 9.66824 21.0208 9.66824C22.429 9.68702 23.774 10.2559 24.7683 11.2534C25.7626 12.2508 26.3272 13.5976 26.3415 15.0059C26.3558 16.4142 25.8186 17.7722 24.8448 18.7896C23.871 19.807 22.5378 20.4031 21.1302 20.4504L21.1055 20.4469ZM31.9018 40.7266L25.9019 29.6762C28.1661 29.2467 30.3002 28.299 32.1371 26.9073C33.974 25.5155 35.4639 23.7175 36.49 21.6539H46.1675L31.9018 40.7266Z" fill="#0D2213"/>
<path d="M72.1789 36.2618H51.2357L71.6813 9.01514L54.8356 9.03631L36.7794 9.07161L36.6912 21.6538L46.1428 21.6502L31.8948 40.5817L31.1572 62.6755L41.8052 48.8298L62.2967 48.8228L72.1789 36.2618Z" fill="#AA0B17"/>
<path d="M4.88463 74.5521H1.76468V79.9344H0V66.6357H4.40111C5.89991 66.6357 7.05284 66.9757 7.85988 67.6557C8.66458 68.3404 9.07046 69.3322 9.07046 70.6345C9.0863 71.4091 8.85105 72.1681 8.39988 72.798C7.92691 73.4332 7.27583 73.9136 6.52932 74.178L9.6528 79.825V79.9344H7.76459L4.88463 74.5521ZM1.76468 73.1192H4.46111C5.21412 73.159 5.95505 72.9175 6.5399 72.4415C6.7942 72.2155 6.99513 71.9359 7.12818 71.6228C7.26124 71.3097 7.3231 70.9709 7.3093 70.631C7.33185 70.2807 7.27786 69.9297 7.15109 69.6025C7.02432 69.2752 6.8278 68.9794 6.5752 68.7357C5.97452 68.2621 5.22124 68.0248 4.45758 68.0687H1.76468V73.1192Z" fill="#0D2213"/>
<path d="M21.755 73.7121C21.7815 74.8835 21.5577 76.0471 21.0985 77.125C20.7122 78.0349 20.0634 78.8091 19.235 79.3485C18.3884 79.8729 17.4072 80.1391 16.4115 80.1144C15.4249 80.1424 14.4525 79.8743 13.6197 79.3447C12.7868 78.815 12.1317 78.0481 11.7387 77.1427C11.2718 76.1022 11.037 74.9725 11.0504 73.8321V72.8722C11.0272 71.708 11.2547 70.5525 11.7175 69.484C12.029 68.8138 12.4787 68.217 13.0371 67.7329C13.5955 67.2488 14.25 66.8883 14.9576 66.675C15.6652 66.4617 16.4099 66.4004 17.1428 66.4952C17.8757 66.5901 18.5803 66.8388 19.2103 67.2252C20.0467 67.7656 20.7009 68.5453 21.0879 69.4628C21.5457 70.54 21.7694 71.702 21.7444 72.8722L21.755 73.7121ZM20.0115 72.8545C20.0115 71.2757 19.695 70.0651 19.0621 69.2228C18.7562 68.811 18.3539 68.4804 17.8906 68.2602C17.4273 68.0399 16.917 67.9366 16.4045 67.9593C15.898 67.9402 15.3946 68.0454 14.9381 68.2657C14.4816 68.4859 14.086 68.8145 13.7857 69.2228C13.1504 70.0651 12.8234 71.2357 12.8045 72.7345V73.7121C12.8045 75.2415 13.1257 76.4427 13.7681 77.3156C14.0666 77.7376 14.4656 78.0786 14.929 78.3079C15.3924 78.5371 15.9055 78.6473 16.4221 78.6285C16.928 78.6563 17.4329 78.5594 17.8925 78.3465C18.3522 78.1336 18.7526 77.8111 19.0586 77.4074C19.6797 76.5815 19.9997 75.4051 20.0186 73.878L20.0115 72.8545Z" fill="#0D2213"/>
<path d="M31.5383 76.4544H25.9655L24.7055 79.9344H22.9055L27.9843 66.6357H29.5195L34.6053 79.9344H32.823L31.5383 76.4544ZM26.4949 75.018H31.016L28.7537 68.7992L26.4949 75.018Z" fill="#0D2213"/>
<path d="M46.6193 79.9344H44.8547L38.1489 69.6992V79.9344H36.3842V66.6357H38.1489L44.8547 76.9274V66.6357H46.6193V79.9344Z" fill="#0D2213"/>
<path d="M59.0956 66.6357V75.678C59.1139 76.2442 59.0183 76.8083 58.8146 77.3369C58.6109 77.8656 58.3032 78.348 57.9098 78.7556C57.0565 79.5849 55.9228 80.0636 54.7334 80.0967H54.2675C52.811 80.0967 51.651 79.705 50.7875 78.9214C50.3485 78.5067 50.0037 78.0025 49.7766 77.4429C49.5495 76.8832 49.4453 76.2814 49.4711 75.678V66.6357H51.2075V75.6427C51.1644 76.0543 51.2141 76.4704 51.3529 76.8603C51.4917 77.2502 51.7161 77.6041 52.0096 77.8959C52.3031 78.1878 52.6583 78.4101 53.049 78.5467C53.4397 78.6832 53.8561 78.7305 54.2675 78.685C55.2604 78.685 56.0192 78.4203 56.5439 77.8909C56.8196 77.5903 57.0317 77.2372 57.1675 76.8527C57.3034 76.4682 57.3602 76.0602 57.3345 75.6533V66.6357H59.0956Z" fill="#0D2213"/>
<path d="M63.1756 78.4979H70.7849V79.9344H61.1038V78.6179L68.3919 68.0687H61.2238V66.6357H70.4919V67.9134L63.1756 78.4979Z" fill="#0D2213"/>
</g>
<defs>
<clipPath id="clip0">
<rect width="72.1789" height="80" fill="white" transform="translate(0 0.114258)"/>
</clipPath>
</defs>
</svg>
