<svg width="92" height="82" viewBox="0 0 92 82" fill="none" xmlns="http://www.w3.org/2000/svg">
<path d="M63.6742 74.6453C63.6053 74.6453 63.538 74.6254 63.4802 74.5876L37.8877 57.6153V57.6146C37.7262 57.5079 37.6826 57.2902 37.7892 57.1288C37.8958 56.9674 38.1135 56.923 38.2749 57.0303L63.4959 73.7575L89.5984 1.93308L2.58638 33.366L19.8557 44.8188C20.0171 44.9262 20.0616 45.1439 19.9542 45.3053C19.8468 45.4668 19.6291 45.5112 19.4677 45.4038L1.62154 33.5637C1.51121 33.4911 1.45124 33.3615 1.46678 33.2297C1.48233 33.0987 1.57119 32.9869 1.69558 32.9417L90.0648 1.02163C90.193 0.974977 90.3359 1.00755 90.4321 1.10381C90.5284 1.20008 90.5602 1.34372 90.5136 1.47183L64.0017 74.4147C63.9639 74.5146 63.8832 74.5924 63.7817 74.625C63.7462 74.6383 63.7092 74.6457 63.6721 74.6457L63.6742 74.6453Z" fill="#D9A362" stroke="#D9A362" stroke-width="1.5"/>
<path d="M30.5277 80.9994C30.3745 80.9987 30.2397 80.898 30.1945 80.7514L19.3304 45.2126C19.2838 45.0601 19.346 44.8957 19.4808 44.812L89.9991 1.05387C90.148 0.959827 90.3442 0.991666 90.456 1.12791C90.5678 1.26416 90.5611 1.4626 90.4405 1.5907L38.3909 57.5035L30.8618 80.7568C30.8152 80.902 30.6804 80.9997 30.5279 80.9997L30.5277 80.9994ZM20.0775 45.2635L30.5351 79.4792L37.7451 57.2115C37.7613 57.1626 37.7873 57.1182 37.8228 57.0812L88.1397 3.03181L20.0775 45.2635Z" fill="#D9A362" stroke="#D9A362" stroke-width="1.5"/>
<path d="M30.5278 80.9994C30.4604 80.9994 30.3937 80.9794 30.3367 80.9424C30.2049 80.8558 30.1479 80.6907 30.1968 80.5403L37.7473 57.213C37.7814 57.1086 37.8621 57.0264 37.9658 56.9909C38.0687 56.9539 38.1835 56.9679 38.2745 57.0287L48.8693 64.0602C48.9596 64.1202 49.0174 64.2187 49.0255 64.3268C49.0329 64.4356 48.99 64.5408 48.9092 64.6133L30.7619 80.9104C30.6982 80.9682 30.6145 81 30.5279 81L30.5278 80.9994ZM38.2722 57.8693L31.2629 79.5171L48.1049 64.3938L38.2722 57.8693Z" fill="#D9A362" stroke="#D9A362" stroke-width="1.5"/>
</svg>
