<svg width="24" height="24" viewBox="0 0 24 24" fill="none" xmlns="http://www.w3.org/2000/svg">
<g clip-path="url(#clip0_4768_10844)">
<path fill-rule="evenodd" clip-rule="evenodd" d="M14.5256 2.35048C15.5744 1.95018 16.7208 1.88163 17.8099 2.15412C18.6759 2.37081 19.4724 2.79485 20.1327 3.3854C20.9449 3.08688 21.7152 2.68287 22.4237 2.18313L23.0001 3.00029L23.9717 3.23691C23.6292 4.64343 22.9426 5.93986 21.977 7.01126C21.9918 7.17266 21.9996 7.33473 22.0001 7.49698L22.0001 7.50029C22.0001 13.6002 19.0632 18.0753 14.845 20.3205C10.651 22.5528 5.29097 22.5281 0.51446 19.8744C0.109649 19.6496 -0.0877967 19.1761 0.0372519 18.7303C0.162301 18.2844 0.577127 17.9827 1.03985 18.0011C2.72666 18.0682 4.39647 17.7328 5.91484 17.0333C4.41169 16.1057 3.32952 15.0045 2.57716 13.8166C1.57353 12.2319 1.19466 10.5532 1.12613 9.0457C1.05781 7.54257 1.29658 6.18919 1.54758 5.21866C1.67368 4.73107 1.80452 4.33379 1.90538 4.05482C1.95587 3.91518 1.99901 3.8047 2.03054 3.72687C2.04631 3.68794 2.0592 3.65713 2.06866 3.63488L2.08023 3.60796L2.08319 3.6012C2.09023 3.58502 2.09773 3.56897 2.10568 3.55308L3.0001 4.00029L3.81846 3.42558C4.734 4.72926 5.95775 5.78628 7.38071 6.5025C8.51256 7.0722 9.7425 7.41221 10.9998 7.5067C10.9924 6.39704 11.3221 5.31095 11.9457 4.39235C12.5762 3.46354 13.4768 2.75079 14.5256 2.35048ZM3.40475 6.0439C3.22106 6.84526 3.07437 7.86153 3.12407 8.95488C3.18055 10.1974 3.48918 11.5187 4.2668 12.7465C5.04039 13.9679 6.31614 15.1575 8.40624 16.0865C8.73804 16.2339 8.96384 16.5497 8.99614 16.9113C9.02844 17.273 8.86216 17.6238 8.56173 17.8277C7.4508 18.5818 6.2343 19.1491 4.9602 19.516C8.13037 20.3236 11.3071 19.9379 13.9053 18.555C17.4366 16.6755 19.9996 12.9011 20.0001 7.50196C19.9993 7.28586 19.9785 7.0703 19.9379 6.85804C19.8752 6.53018 19.9803 6.19267 20.2179 5.95828C20.4407 5.7386 20.647 5.50445 20.8358 5.25779C20.6093 5.34135 20.3801 5.41807 20.1484 5.48782C19.7718 5.60123 19.3637 5.48332 19.1055 5.18653C18.6377 4.64861 18.016 4.26735 17.3244 4.09431C16.6328 3.92127 15.9048 3.9648 15.2388 4.21901C14.5727 4.47321 14.0009 4.92584 13.6005 5.51567C13.2001 6.10549 12.9905 6.80406 13 7.51689L13.0002 7.53029H13.0001V8.53029C13.0001 9.07248 12.568 9.5159 12.026 9.52995C10.1038 9.5798 8.19909 9.15348 6.48152 8.28897C5.33595 7.71237 4.29735 6.95277 3.40475 6.0439Z" fill="white"/>
</g>
<defs>
<clipPath id="clip0_4768_10844">
<rect width="24" height="24" fill="white"/>
</clipPath>
</defs>
</svg>
