<svg width="20" height="24" viewBox="0 0 20 24" fill="none" xmlns="http://www.w3.org/2000/svg">
<path fill-rule="evenodd" clip-rule="evenodd" d="M0.719699 0.219641C0.860368 0.0789867 1.05115 -2.15129e-05 1.25008 4.3939e-09L7.84816 0.000713472C7.86429 0.0007152 7.8803 0.00122619 7.89618 0.00223119C8.48729 0.00456059 9.07263 0.0498566 9.63124 0.151302C12.3746 0.533591 14.6721 1.63664 16.3648 3.38113C18.246 5.3198 19.319 7.98732 19.4774 11.1671C19.4893 11.3082 19.496 11.4498 19.4975 11.5915C19.4992 11.6116 19.5 11.632 19.5 11.6526V23.25C19.5 23.6642 19.1642 24 18.75 24H1.25C0.835786 24 0.5 23.6642 0.5 23.25V0.75C0.5 0.551074 0.579029 0.360296 0.719699 0.219641ZM18 12.057C17.9986 12.0382 17.9979 12.0192 17.9979 12C17.9979 11.7529 17.9921 11.5097 17.9807 11.2705C17.9711 11.1639 17.9575 11.0577 17.9398 10.9521C17.7239 9.65895 17.3169 8.69359 16.7422 8.10761C16.2072 7.562 15.4517 7.26746 14.2978 7.46016L12.6235 7.73976C12.3845 7.77967 12.141 7.70166 11.9697 7.53033C11.7983 7.359 11.7203 7.11545 11.7602 6.87646L12.0398 5.20219C12.0785 4.97084 12.0979 4.73669 12.0979 4.50214C12.0979 3.36138 11.6551 2.66587 10.9727 2.2191C10.5528 1.94425 10.0173 1.74863 9.38905 1.63189C8.89048 1.56384 8.37205 1.52175 7.83431 1.5068L7.48971 1.50207C7.47736 1.5019 7.46508 1.50143 7.45288 1.50067L2 1.50008V22.5H18V12.057ZM13.3457 2.92419C13.5103 3.39305 13.5979 3.91904 13.5979 4.50214C13.5979 4.81947 13.5716 5.13626 13.5194 5.44926L13.4128 6.08717L14.0507 5.98064C15.0334 5.81655 15.8984 5.91098 16.6344 6.23541C16.2565 5.5629 15.8054 4.95862 15.2883 4.42571C14.7255 3.84568 14.0766 3.34221 13.3457 2.92419ZM4.25 5.75C4.25 5.33579 4.58579 5 5 5H8.75C9.16421 5 9.5 5.33579 9.5 5.75C9.5 6.16421 9.16421 6.5 8.75 6.5H5C4.58579 6.5 4.25 6.16421 4.25 5.75ZM4.25 10.75C4.25 10.3358 4.58579 10 5 10H15C15.4142 10 15.75 10.3358 15.75 10.75C15.75 11.1642 15.4142 11.5 15 11.5H5C4.58579 11.5 4.25 11.1642 4.25 10.75ZM4.25 14.5C4.25 14.0858 4.58579 13.75 5 13.75H15C15.4142 13.75 15.75 14.0858 15.75 14.5C15.75 14.9142 15.4142 15.25 15 15.25H5C4.58579 15.25 4.25 14.9142 4.25 14.5ZM4.25 18.25C4.25 17.8358 4.58579 17.5 5 17.5H15C15.4142 17.5 15.75 17.8358 15.75 18.25C15.75 18.6642 15.4142 19 15 19H5C4.58579 19 4.25 18.6642 4.25 18.25Z" fill="#D9A362"/>
</svg>
