<svg width="16" height="16" viewBox="0 0 16 16" fill="none" xmlns="http://www.w3.org/2000/svg">
<path fill-rule="evenodd" clip-rule="evenodd" d="M7.73861 8.68351C9.43228 8.68351 10.8053 7.31052 10.8053 5.61684C10.8053 3.92317 9.43228 2.55017 7.73861 2.55017C6.04493 2.55017 4.67194 3.92317 4.67194 5.61684C4.67194 7.31052 6.04493 8.68351 7.73861 8.68351ZM7.73861 9.95018C10.1318 9.95018 12.0719 8.01008 12.0719 5.61684C12.0719 3.22361 10.1318 1.28351 7.73861 1.28351C5.34537 1.28351 3.40527 3.22361 3.40527 5.61684C3.40527 8.01008 5.34537 9.95018 7.73861 9.95018Z" fill="#1C6DD0"/>
<path fill-rule="evenodd" clip-rule="evenodd" d="M7.91889 11.9667C5.06871 11.9667 3.17649 13.2512 2.50428 14.8791L1.3335 14.3957C2.25239 12.1703 4.70403 10.7 7.91889 10.7C11.1337 10.7 13.5854 12.1703 14.5043 14.3957L13.3335 14.8791C12.6613 13.2512 10.7691 11.9667 7.91889 11.9667Z" fill="#1C6DD0"/>
</svg>
